<svg width="127" height="141" viewBox="0 0 127 141" fill="none" xmlns="http://www.w3.org/2000/svg">
<g clip-path="url(#clip0_163845_171291)">
<path d="M120.221 36.8043H122.365L126.682 45.4394V90.7002L122.365 99.3355H120.221V84.2387L122.365 82.0948V62.6803L120.221 60.5362V36.8043Z" fill="white"/>
<path d="M8.14 99.3355H5.99612L1.67847 90.7002V45.4394L5.99612 36.8043H8.14V51.9011L5.99612 54.045V73.4595L8.14 75.6331V99.3355Z" fill="white"/>
<path d="M9.30151 35.0175L8.14038 33.2012L13.1727 24.9529L51.555 0.923082L61.1429 0L62.2745 1.81638L49.5003 9.82636L46.5227 9.17127L30.0858 19.4442L29.4009 22.422L9.30151 35.0175Z" fill="white"/>
<path d="M119.059 35.0175L120.221 33.2012L115.188 24.9529L76.8057 0.923082L67.2175 0L66.0859 1.81638L78.8602 9.82636L81.8379 9.17127L98.2747 19.4442L98.9596 22.422L119.059 35.0175Z" fill="white"/>
<path d="M119.059 102.015L120.221 103.832L115.188 112.08L76.8057 136.11L67.2175 137.033L66.0859 135.216L78.8602 127.207L81.8379 127.891L98.2747 117.589L98.9596 114.611L119.059 102.015Z" fill="white"/>
<path d="M9.30151 102.015L8.14038 103.832L13.1727 112.08L51.555 136.11L61.1429 137.033L62.2745 135.216L49.5003 127.207L46.5227 127.891L30.0858 117.589L29.4009 114.611L9.30151 102.015Z" fill="white"/>
<path d="M33.8381 52.6157H53.9373L57.9573 48.5957H75.3768L78.0566 51.2756H91.4562L95.476 55.2956H80.7365L78.0566 57.9756H61.9771L60.6373 56.6355H39.1978L37.8579 57.9756H33.8381L31.1582 55.2956L33.8381 52.6157Z" fill="white"/>
<path d="M33.5105 66.7H50.1259C50.1854 66.7 50.245 66.6701 50.3045 66.6404L53.4014 63.4246C53.4311 63.3649 53.5205 63.3649 53.5799 63.3649H77.3121C77.3716 63.3649 77.4312 63.3947 77.4907 63.4246L81.5701 67.6229C81.6 67.6826 81.6892 67.6826 81.7489 67.6826H95.3271C95.4462 67.6826 95.5653 67.8017 95.5653 67.9208V71.8215C95.5653 71.9406 95.4759 72.0597 95.3271 72.0597H78.8604C78.801 72.0597 78.7414 72.0896 78.6819 72.1193L77.5206 73.3104C77.4907 73.37 77.4015 73.37 77.3418 73.37H59.3865C59.3566 73.37 59.2971 73.37 59.2674 73.3401L56.7959 72.0597C56.766 72.03 56.7363 72.03 56.6768 72.03H33.5699C33.5105 72.03 33.4508 72.0002 33.3914 71.9705L31.0388 69.5288C30.9496 69.4394 30.9496 69.2906 31.0388 69.2309L33.3914 66.7892C33.3914 66.7298 33.4508 66.7 33.5105 66.7Z" fill="white"/>
<path d="M68.4683 80.7548H95.4759V86.1146H87.7637L86.4535 87.4545H80.0217L78.7413 86.1146H69.7487L68.4683 84.7746V80.7548Z" fill="white"/>
<path d="M57.9871 80.5462H48.2204L46.9994 79.4146H38.4832L37.2624 80.5462H31.1582V86.1144H60.4288V81.6479L57.9871 80.5462Z" fill="white"/>
</g>
<defs>
<clipPath id="clip0_163845_171291">
<rect width="127" height="140.026" fill="white"/>
</clipPath>
</defs>
</svg>
