<?xml version="1.0" encoding="UTF-8" standalone="no"?>
<!DOCTYPE svg PUBLIC "-//W3C//DTD SVG 1.1//EN"
 "http://www.w3.org/Graphics/SVG/1.1/DTD/svg11.dtd">
<!-- Generated by graphviz version 2.43.0 (0)
 -->
<!-- Title: finite_state_machine Pages: 1 -->
<svg width="711pt" height="1141pt"
 viewBox="0.00 0.00 711.33 1141.42" xmlns="http://www.w3.org/2000/svg" xmlns:xlink="http://www.w3.org/1999/xlink">
<g id="graph0" class="graph" transform="scale(1 1) rotate(0) translate(4 1137.42)">
<title>finite_state_machine</title>
<polygon fill="white" stroke="transparent" points="-4,4 -4,-1137.42 707.33,-1137.42 707.33,4 -4,4"/>
<!-- RandomnessOracleRound -->
<g id="node1" class="node">
<title>RandomnessOracleRound</title>
<ellipse fill="none" stroke="black" cx="351.64" cy="-1030.73" rx="102.88" ry="102.88"/>
<text text-anchor="middle" x="351.64" y="-1027.03" font-family="Times,serif" font-size="14.00">RandomnessOracleRound</text>
</g>
<!-- RandomnessOracleRound&#45;&gt;RandomnessOracleRound -->
<g id="edge2" class="edge">
<title>RandomnessOracleRound&#45;&gt;RandomnessOracleRound</title>
<path fill="none" stroke="black" d="M454.22,-1040.75C465.24,-1038.82 472.33,-1035.48 472.33,-1030.73 472.33,-1027.61 469.28,-1025.1 464.06,-1023.2"/>
<polygon fill="black" stroke="black" points="464.77,-1019.77 454.22,-1020.71 463.05,-1026.55 464.77,-1019.77"/>
<text text-anchor="middle" x="530.83" y="-1027.03" font-family="Times,serif" font-size="14.00">ROUND_TIMEOUT</text>
</g>
<!-- RandomnessOracleRound&#45;&gt;RandomnessOracleRound -->
<g id="edge3" class="edge">
<title>RandomnessOracleRound&#45;&gt;RandomnessOracleRound</title>
<path fill="none" stroke="black" d="M451.91,-1053.56C518.01,-1057.87 589.33,-1050.26 589.33,-1030.73 589.33,-1012.19 525.07,-1004.39 462.01,-1007.33"/>
<polygon fill="black" stroke="black" points="461.7,-1003.84 451.91,-1007.9 462.09,-1010.83 461.7,-1003.84"/>
<text text-anchor="middle" x="637.33" y="-1027.03" font-family="Times,serif" font-size="14.00">NO_MAJORITY</text>
</g>
<!-- SelectKeeperOracleRound -->
<g id="node2" class="node">
<title>SelectKeeperOracleRound</title>
<ellipse fill="none" stroke="black" cx="104.64" cy="-772.4" rx="104.78" ry="104.78"/>
<text text-anchor="middle" x="104.64" y="-768.7" font-family="Times,serif" font-size="14.00">SelectKeeperOracleRound</text>
</g>
<!-- RandomnessOracleRound&#45;&gt;SelectKeeperOracleRound -->
<g id="edge1" class="edge">
<title>RandomnessOracleRound&#45;&gt;SelectKeeperOracleRound</title>
<path fill="none" stroke="black" d="M249.22,-1019.95C177.74,-1007.18 87.14,-977.76 40.64,-910.04 30.72,-895.59 30.36,-879.37 35.23,-863.29"/>
<polygon fill="black" stroke="black" points="38.53,-864.44 38.66,-853.85 31.95,-862.05 38.53,-864.44"/>
<text text-anchor="middle" x="59.64" y="-898.84" font-family="Times,serif" font-size="14.00">DONE</text>
</g>
<!-- SelectKeeperOracleRound&#45;&gt;RandomnessOracleRound -->
<g id="edge5" class="edge">
<title>SelectKeeperOracleRound&#45;&gt;RandomnessOracleRound</title>
<path fill="none" stroke="black" d="M89.54,-876.23C91.43,-888.21 95.19,-899.8 101.64,-910.04 132.55,-959.1 189.75,-988.49 241.64,-1005.86"/>
<polygon fill="black" stroke="black" points="240.67,-1009.23 251.26,-1008.97 242.82,-1002.57 240.67,-1009.23"/>
<text text-anchor="middle" x="160.14" y="-898.84" font-family="Times,serif" font-size="14.00">ROUND_TIMEOUT</text>
</g>
<!-- SelectKeeperOracleRound&#45;&gt;RandomnessOracleRound -->
<g id="edge6" class="edge">
<title>SelectKeeperOracleRound&#45;&gt;RandomnessOracleRound</title>
<path fill="none" stroke="black" d="M177.15,-848.64C207.56,-880.2 242.97,-916.95 273.92,-949.07"/>
<polygon fill="black" stroke="black" points="271.4,-951.5 280.86,-956.27 276.44,-946.64 271.4,-951.5"/>
<text text-anchor="middle" x="283.64" y="-898.84" font-family="Times,serif" font-size="14.00">NO_MAJORITY</text>
</g>
<!-- DeployOracleRound -->
<g id="node3" class="node">
<title>DeployOracleRound</title>
<ellipse fill="none" stroke="black" cx="168.64" cy="-533.56" rx="83.39" ry="83.39"/>
<text text-anchor="middle" x="168.64" y="-529.86" font-family="Times,serif" font-size="14.00">DeployOracleRound</text>
</g>
<!-- SelectKeeperOracleRound&#45;&gt;DeployOracleRound -->
<g id="edge4" class="edge">
<title>SelectKeeperOracleRound&#45;&gt;DeployOracleRound</title>
<path fill="none" stroke="black" d="M45.97,-685.6C40.78,-668.63 39.98,-651.04 47.64,-634.75 57.05,-614.74 72.64,-597.36 89.55,-582.94"/>
<polygon fill="black" stroke="black" points="91.87,-585.57 97.39,-576.53 87.43,-580.15 91.87,-585.57"/>
<text text-anchor="middle" x="66.64" y="-638.55" font-family="Times,serif" font-size="14.00">DONE</text>
</g>
<!-- DeployOracleRound&#45;&gt;SelectKeeperOracleRound -->
<g id="edge8" class="edge">
<title>DeployOracleRound&#45;&gt;SelectKeeperOracleRound</title>
<path fill="none" stroke="black" d="M121.83,-602.51C116.49,-612.93 111.83,-623.86 108.64,-634.75 106.49,-642.12 104.81,-649.81 103.53,-657.62"/>
<polygon fill="black" stroke="black" points="100.06,-657.16 102.12,-667.56 106.99,-658.15 100.06,-657.16"/>
<text text-anchor="middle" x="169.64" y="-638.55" font-family="Times,serif" font-size="14.00">DEPLOY_TIMEOUT</text>
</g>
<!-- DeployOracleRound&#45;&gt;SelectKeeperOracleRound -->
<g id="edge9" class="edge">
<title>DeployOracleRound&#45;&gt;SelectKeeperOracleRound</title>
<path fill="none" stroke="black" d="M224.45,-595.7C233.78,-612.88 238.27,-631.78 230.64,-649.75 222.52,-668.88 209.76,-686.45 195.42,-701.95"/>
<polygon fill="black" stroke="black" points="192.67,-699.76 188.26,-709.39 197.72,-704.61 192.67,-699.76"/>
<text text-anchor="middle" x="259.14" y="-638.55" font-family="Times,serif" font-size="14.00">FAILED</text>
</g>
<!-- ValidateOracleRound -->
<g id="node4" class="node">
<title>ValidateOracleRound</title>
<ellipse fill="none" stroke="black" cx="422.64" cy="-312.93" rx="86.38" ry="86.38"/>
<text text-anchor="middle" x="422.64" y="-309.23" font-family="Times,serif" font-size="14.00">ValidateOracleRound</text>
</g>
<!-- DeployOracleRound&#45;&gt;ValidateOracleRound -->
<g id="edge7" class="edge">
<title>DeployOracleRound&#45;&gt;ValidateOracleRound</title>
<path fill="none" stroke="black" d="M224.35,-471.42C241.77,-453.36 261.47,-434 280.64,-417.37 300.17,-400.43 322.33,-383.37 343.24,-368.13"/>
<polygon fill="black" stroke="black" points="345.44,-370.85 351.49,-362.16 341.34,-365.18 345.44,-370.85"/>
<text text-anchor="middle" x="299.64" y="-421.17" font-family="Times,serif" font-size="14.00">DONE</text>
</g>
<!-- ValidateOracleRound&#45;&gt;RandomnessOracleRound -->
<g id="edge11" class="edge">
<title>ValidateOracleRound&#45;&gt;RandomnessOracleRound</title>
<path fill="none" stroke="black" d="M393.77,-394.41C372.37,-458.54 345.02,-551.13 333.64,-634.75 326.48,-687.39 334.55,-820.75 342.06,-917.99"/>
<polygon fill="black" stroke="black" points="338.59,-918.47 342.86,-928.17 345.57,-917.93 338.59,-918.47"/>
<text text-anchor="middle" x="367.14" y="-638.55" font-family="Times,serif" font-size="14.00">NEGATIVE</text>
</g>
<!-- ValidateOracleRound&#45;&gt;RandomnessOracleRound -->
<g id="edge12" class="edge">
<title>ValidateOracleRound&#45;&gt;RandomnessOracleRound</title>
<path fill="none" stroke="black" d="M418.53,-399.28C414.9,-467.23 408.9,-564.7 400.64,-649.75 391.82,-740.51 378.4,-843.04 367.83,-918.7"/>
<polygon fill="black" stroke="black" points="364.35,-918.33 366.42,-928.72 371.28,-919.3 364.35,-918.33"/>
<text text-anchor="middle" x="420.64" y="-638.55" font-family="Times,serif" font-size="14.00">NONE</text>
</g>
<!-- ValidateOracleRound&#45;&gt;RandomnessOracleRound -->
<g id="edge13" class="edge">
<title>ValidateOracleRound&#45;&gt;RandomnessOracleRound</title>
<path fill="none" stroke="black" d="M429.35,-399.16C429.8,-405.32 430.23,-411.44 430.64,-417.37 437.72,-520.57 453.52,-546.78 443.64,-649.75 433.82,-752.17 424.89,-777.29 399.64,-877.04 395.87,-891.95 391.48,-907.56 386.92,-922.86"/>
<polygon fill="black" stroke="black" points="383.44,-922.28 383.9,-932.86 390.14,-924.3 383.44,-922.28"/>
<text text-anchor="middle" x="511.64" y="-638.55" font-family="Times,serif" font-size="14.00">VALIDATE_TIMEOUT</text>
</g>
<!-- ValidateOracleRound&#45;&gt;RandomnessOracleRound -->
<g id="edge14" class="edge">
<title>ValidateOracleRound&#45;&gt;RandomnessOracleRound</title>
<path fill="none" stroke="black" d="M482.67,-375.46C539.07,-440.95 610.9,-548.85 582.64,-649.75 551.76,-759.99 479.15,-870.01 423.51,-943.07"/>
<polygon fill="black" stroke="black" points="420.47,-941.29 417.16,-951.35 426.02,-945.55 420.47,-941.29"/>
<text text-anchor="middle" x="633.64" y="-638.55" font-family="Times,serif" font-size="14.00">NO_MAJORITY</text>
</g>
<!-- FinishedOracleRound -->
<g id="node5" class="node">
<title>FinishedOracleRound</title>
<ellipse fill="none" stroke="black" cx="422.64" cy="-87.74" rx="87.99" ry="87.99"/>
<text text-anchor="middle" x="422.64" y="-84.04" font-family="Times,serif" font-size="14.00">FinishedOracleRound</text>
</g>
<!-- ValidateOracleRound&#45;&gt;FinishedOracleRound -->
<g id="edge10" class="edge">
<title>ValidateOracleRound&#45;&gt;FinishedOracleRound</title>
<path fill="none" stroke="black" d="M422.64,-226.28C422.64,-213.05 422.64,-199.31 422.64,-185.86"/>
<polygon fill="black" stroke="black" points="426.14,-185.64 422.64,-175.64 419.14,-185.64 426.14,-185.64"/>
<text text-anchor="middle" x="441.64" y="-197.28" font-family="Times,serif" font-size="14.00">DONE</text>
</g>
</g>
</svg>
