<?xml version="1.0" encoding="UTF-8" standalone="no"?>
<!DOCTYPE svg PUBLIC "-//W3C//DTD SVG 1.1//EN"
 "http://www.w3.org/Graphics/SVG/1.1/DTD/svg11.dtd">
<!-- Generated by graphviz version 2.43.0 (0)
 -->
<!-- Title: finite_state_machine Pages: 1 -->
<svg width="644pt" height="947pt"
 viewBox="0.00 0.00 643.65 947.43" xmlns="http://www.w3.org/2000/svg" xmlns:xlink="http://www.w3.org/1999/xlink">
<g id="page0,1_graph0" class="graph" transform="scale(1 1) rotate(0) translate(4 943.43)">
<title>finite_state_machine</title>
<polygon fill="white" stroke="transparent" points="-4,4 -4,-943.43 639.65,-943.43 639.65,4 -4,4"/>
<!-- CollectObservationRound -->
<g id="node1" class="node">
<title>CollectObservationRound</title>
<ellipse fill="none" stroke="black" cx="262.65" cy="-836.74" rx="102.88" ry="102.88"/>
<text text-anchor="middle" x="262.65" y="-833.04" font-family="Times,serif" font-size="14.00">CollectObservationRound</text>
</g>
<!-- CollectObservationRound&#45;&gt;CollectObservationRound -->
<g id="edge2" class="edge">
<title>CollectObservationRound&#45;&gt;CollectObservationRound</title>
<path fill="none" stroke="black" d="M363.45,-857.36C375.48,-853.61 383.34,-846.74 383.34,-836.74 383.34,-829.71 379.45,-824.22 372.96,-820.28"/>
<polygon fill="black" stroke="black" points="374.01,-816.92 363.45,-816.11 371.2,-823.33 374.01,-816.92"/>
<text text-anchor="middle" x="441.84" y="-833.04" font-family="Times,serif" font-size="14.00">ROUND_TIMEOUT</text>
</g>
<!-- EstimateConsensusRound -->
<g id="node2" class="node">
<title>EstimateConsensusRound</title>
<ellipse fill="none" stroke="black" cx="123.65" cy="-580.36" rx="102.88" ry="102.88"/>
<text text-anchor="middle" x="123.65" y="-576.66" font-family="Times,serif" font-size="14.00">EstimateConsensusRound</text>
</g>
<!-- CollectObservationRound&#45;&gt;EstimateConsensusRound -->
<g id="edge1" class="edge">
<title>CollectObservationRound&#45;&gt;EstimateConsensusRound</title>
<path fill="none" stroke="black" d="M161.94,-816.01C106.21,-799.39 41.54,-769.4 7.65,-716.05 -8.93,-689.96 5.22,-663.68 28.58,-641.34"/>
<polygon fill="black" stroke="black" points="31.03,-643.84 36.1,-634.53 26.34,-638.64 31.03,-643.84"/>
<text text-anchor="middle" x="26.65" y="-704.85" font-family="Times,serif" font-size="14.00">DONE</text>
</g>
<!-- EstimateConsensusRound&#45;&gt;CollectObservationRound -->
<g id="edge4" class="edge">
<title>EstimateConsensusRound&#45;&gt;CollectObservationRound</title>
<path fill="none" stroke="black" d="M65.63,-665.11C60.26,-682.32 59.72,-700.06 68.65,-716.05 88.16,-751.02 122.57,-777.05 157.04,-795.74"/>
<polygon fill="black" stroke="black" points="155.79,-799.04 166.27,-800.58 159.04,-792.84 155.79,-799.04"/>
<text text-anchor="middle" x="127.15" y="-704.85" font-family="Times,serif" font-size="14.00">ROUND_TIMEOUT</text>
</g>
<!-- EstimateConsensusRound&#45;&gt;CollectObservationRound -->
<g id="edge5" class="edge">
<title>EstimateConsensusRound&#45;&gt;CollectObservationRound</title>
<path fill="none" stroke="black" d="M172.68,-671.09C184.36,-692.47 196.88,-715.39 208.77,-737.14"/>
<polygon fill="black" stroke="black" points="205.77,-738.96 213.64,-746.05 211.92,-735.6 205.77,-738.96"/>
<text text-anchor="middle" x="241.65" y="-704.85" font-family="Times,serif" font-size="14.00">NO_MAJORITY</text>
</g>
<!-- TxHashRound -->
<g id="node3" class="node">
<title>TxHashRound</title>
<ellipse fill="none" stroke="black" cx="355.65" cy="-364.92" rx="61.99" ry="61.99"/>
<text text-anchor="middle" x="355.65" y="-361.22" font-family="Times,serif" font-size="14.00">TxHashRound</text>
</g>
<!-- EstimateConsensusRound&#45;&gt;TxHashRound -->
<g id="edge3" class="edge">
<title>EstimateConsensusRound&#45;&gt;TxHashRound</title>
<path fill="none" stroke="black" d="M197.82,-508.66C219.84,-487.9 244.1,-465.25 266.65,-444.67 277.89,-434.4 290.06,-423.5 301.67,-413.2"/>
<polygon fill="black" stroke="black" points="304.04,-415.77 309.21,-406.52 299.4,-410.53 304.04,-415.77"/>
<text text-anchor="middle" x="285.65" y="-448.47" font-family="Times,serif" font-size="14.00">DONE</text>
</g>
<!-- TxHashRound&#45;&gt;CollectObservationRound -->
<g id="edge7" class="edge">
<title>TxHashRound&#45;&gt;CollectObservationRound</title>
<path fill="none" stroke="black" d="M342.9,-425.57C339.43,-442.39 335.77,-460.72 332.65,-477.67 313.15,-583.24 315.79,-611 293.65,-716.05 292.87,-719.73 292.05,-723.47 291.21,-727.24"/>
<polygon fill="black" stroke="black" points="287.73,-726.75 288.91,-737.28 294.55,-728.32 287.73,-726.75"/>
<text text-anchor="middle" x="351.65" y="-576.66" font-family="Times,serif" font-size="14.00">NONE</text>
</g>
<!-- TxHashRound&#45;&gt;CollectObservationRound -->
<g id="edge8" class="edge">
<title>TxHashRound&#45;&gt;CollectObservationRound</title>
<path fill="none" stroke="black" d="M370.49,-425.09C384.05,-490.01 398.16,-596.51 370.65,-683.05 363.12,-706.71 350.46,-729.86 336.4,-750.69"/>
<polygon fill="black" stroke="black" points="333.34,-748.95 330.51,-759.16 339.09,-752.95 333.34,-748.95"/>
<text text-anchor="middle" x="445.15" y="-576.66" font-family="Times,serif" font-size="14.00">ROUND_TIMEOUT</text>
</g>
<!-- TxHashRound&#45;&gt;CollectObservationRound -->
<g id="edge9" class="edge">
<title>TxHashRound&#45;&gt;CollectObservationRound</title>
<path fill="none" stroke="black" d="M412.04,-390.77C446.5,-409.3 487.68,-438.21 507.65,-477.67 548.86,-559.11 551.95,-603.24 507.65,-683.05 477.87,-736.69 420.56,-773.94 368.85,-798.21"/>
<polygon fill="black" stroke="black" points="367.24,-795.1 359.61,-802.44 370.15,-801.46 367.24,-795.1"/>
<text text-anchor="middle" x="587.65" y="-576.66" font-family="Times,serif" font-size="14.00">NO_MAJORITY</text>
</g>
<!-- FinishedPriceAggregationRound -->
<g id="node4" class="node">
<title>FinishedPriceAggregationRound</title>
<ellipse fill="none" stroke="black" cx="355.65" cy="-126.09" rx="126.18" ry="126.18"/>
<text text-anchor="middle" x="355.65" y="-122.39" font-family="Times,serif" font-size="14.00">FinishedPriceAggregationRound</text>
</g>
<!-- TxHashRound&#45;&gt;FinishedPriceAggregationRound -->
<g id="edge6" class="edge">
<title>TxHashRound&#45;&gt;FinishedPriceAggregationRound</title>
<path fill="none" stroke="black" d="M355.65,-302.93C355.65,-290.36 355.65,-276.65 355.65,-262.61"/>
<polygon fill="black" stroke="black" points="359.15,-262.34 355.65,-252.34 352.15,-262.34 359.15,-262.34"/>
<text text-anchor="middle" x="374.65" y="-273.98" font-family="Times,serif" font-size="14.00">DONE</text>
</g>
</g>
</svg>
