<?xml version="1.0" encoding="UTF-8" standalone="no"?>
<!DOCTYPE svg PUBLIC "-//W3C//DTD SVG 1.1//EN"
 "http://www.w3.org/Graphics/SVG/1.1/DTD/svg11.dtd">
<!-- Generated by graphviz version 2.43.0 (0)
 -->
<!-- Title: finite_state_machine Pages: 1 -->
<svg width="1232pt" height="4787pt"
 viewBox="0.00 0.00 1232.13 4786.66" xmlns="http://www.w3.org/2000/svg" xmlns:xlink="http://www.w3.org/1999/xlink">
<g id="graph0" class="graph" transform="scale(1 1) rotate(0) translate(4 4782.66)">
<title>finite_state_machine</title>
<polygon fill="white" stroke="transparent" points="-4,4 -4,-4782.66 1228.13,-4782.66 1228.13,4 -4,4"/>
<!-- RegistrationStartupRound -->
<g id="node1" class="node">
<title>RegistrationStartupRound</title>
<ellipse fill="none" stroke="black" cx="292.13" cy="-4675.97" rx="102.88" ry="102.88"/>
<text text-anchor="middle" x="292.13" y="-4672.27" font-family="Times,serif" font-size="14.00">RegistrationStartupRound</text>
</g>
<!-- RandomnessSafeRound -->
<g id="node2" class="node">
<title>RandomnessSafeRound</title>
<ellipse fill="none" stroke="black" cx="594.13" cy="-4427.38" rx="94.78" ry="94.78"/>
<text text-anchor="middle" x="594.13" y="-4423.68" font-family="Times,serif" font-size="14.00">RandomnessSafeRound</text>
</g>
<!-- RegistrationStartupRound&#45;&gt;RandomnessSafeRound -->
<g id="edge1" class="edge">
<title>RegistrationStartupRound&#45;&gt;RandomnessSafeRound</title>
<path fill="none" stroke="black" d="M371.48,-4610.18C415.17,-4574.51 469.28,-4530.33 513.21,-4494.46"/>
<polygon fill="black" stroke="black" points="515.48,-4497.13 521.01,-4488.09 511.05,-4491.7 515.48,-4497.13"/>
<text text-anchor="middle" x="471.13" y="-4544.08" font-family="Times,serif" font-size="14.00">DONE</text>
</g>
<!-- CollectObservationRound -->
<g id="node3" class="node">
<title>CollectObservationRound</title>
<ellipse fill="none" stroke="black" cx="292.13" cy="-2566.11" rx="102.88" ry="102.88"/>
<text text-anchor="middle" x="292.13" y="-2562.41" font-family="Times,serif" font-size="14.00">CollectObservationRound</text>
</g>
<!-- RegistrationStartupRound&#45;&gt;CollectObservationRound -->
<g id="edge2" class="edge">
<title>RegistrationStartupRound&#45;&gt;CollectObservationRound</title>
<path fill="none" stroke="black" d="M282.6,-4573.69C279.17,-4529.16 276.13,-4476.22 276.13,-4428.38 276.13,-4428.38 276.13,-4428.38 276.13,-2805.25 276.13,-2763.8 278.58,-2718.39 281.55,-2678.44"/>
<polygon fill="black" stroke="black" points="285.05,-2678.64 282.32,-2668.4 278.07,-2678.11 285.05,-2678.64"/>
<text text-anchor="middle" x="329.13" y="-3648.54" font-family="Times,serif" font-size="14.00">FAST_FORWARD</text>
</g>
<!-- RandomnessSafeRound&#45;&gt;RandomnessSafeRound -->
<g id="edge5" class="edge">
<title>RandomnessSafeRound&#45;&gt;RandomnessSafeRound</title>
<path fill="none" stroke="black" d="M688.84,-4436.99C699.86,-4435.21 707.03,-4432.01 707.03,-4427.38 707.03,-4424.35 703.94,-4421.92 698.7,-4420.12"/>
<polygon fill="black" stroke="black" points="699.38,-4416.68 688.84,-4417.78 697.77,-4423.49 699.38,-4416.68"/>
<text text-anchor="middle" x="765.53" y="-4423.68" font-family="Times,serif" font-size="14.00">ROUND_TIMEOUT</text>
</g>
<!-- RandomnessSafeRound&#45;&gt;RandomnessSafeRound -->
<g id="edge6" class="edge">
<title>RandomnessSafeRound&#45;&gt;RandomnessSafeRound</title>
<path fill="none" stroke="black" d="M686.66,-4448.52C751.72,-4453.12 824.03,-4446.08 824.03,-4427.38 824.03,-4409.68 759.15,-4402.42 697,-4405.62"/>
<polygon fill="black" stroke="black" points="696.43,-4402.14 686.66,-4406.25 696.85,-4409.13 696.43,-4402.14"/>
<text text-anchor="middle" x="872.03" y="-4423.68" font-family="Times,serif" font-size="14.00">NO_MAJORITY</text>
</g>
<!-- SelectKeeperSafeRound -->
<g id="node5" class="node">
<title>SelectKeeperSafeRound</title>
<ellipse fill="none" stroke="black" cx="432.13" cy="-4184.65" rx="96.68" ry="96.68"/>
<text text-anchor="middle" x="432.13" y="-4180.95" font-family="Times,serif" font-size="14.00">SelectKeeperSafeRound</text>
</g>
<!-- RandomnessSafeRound&#45;&gt;SelectKeeperSafeRound -->
<g id="edge4" class="edge">
<title>RandomnessSafeRound&#45;&gt;SelectKeeperSafeRound</title>
<path fill="none" stroke="black" d="M565.72,-4336.67C560.07,-4323.75 553.55,-4310.97 546.13,-4299.49 536.4,-4284.43 524.39,-4269.77 511.85,-4256.26"/>
<polygon fill="black" stroke="black" points="514.26,-4253.72 504.84,-4248.87 509.19,-4258.54 514.26,-4253.72"/>
<text text-anchor="middle" x="572.13" y="-4303.29" font-family="Times,serif" font-size="14.00">DONE</text>
</g>
<!-- CollectObservationRound&#45;&gt;CollectObservationRound -->
<g id="edge33" class="edge">
<title>CollectObservationRound&#45;&gt;CollectObservationRound</title>
<path fill="none" stroke="black" d="M392.94,-2586.74C404.97,-2582.99 412.83,-2576.11 412.83,-2566.11 412.83,-2559.08 408.94,-2553.6 402.45,-2549.65"/>
<polygon fill="black" stroke="black" points="403.5,-2546.29 392.94,-2545.49 400.69,-2552.7 403.5,-2546.29"/>
<text text-anchor="middle" x="471.33" y="-2562.41" font-family="Times,serif" font-size="14.00">ROUND_TIMEOUT</text>
</g>
<!-- EstimateConsensusRound -->
<g id="node12" class="node">
<title>EstimateConsensusRound</title>
<ellipse fill="none" stroke="black" cx="153.13" cy="-2309.73" rx="102.88" ry="102.88"/>
<text text-anchor="middle" x="153.13" y="-2306.03" font-family="Times,serif" font-size="14.00">EstimateConsensusRound</text>
</g>
<!-- CollectObservationRound&#45;&gt;EstimateConsensusRound -->
<g id="edge32" class="edge">
<title>CollectObservationRound&#45;&gt;EstimateConsensusRound</title>
<path fill="none" stroke="black" d="M191.43,-2545.38C135.7,-2528.76 71.03,-2498.78 37.13,-2445.42 20.56,-2419.34 34.71,-2393.05 58.07,-2370.71"/>
<polygon fill="black" stroke="black" points="60.52,-2373.21 65.59,-2363.91 55.83,-2368.02 60.52,-2373.21"/>
<text text-anchor="middle" x="56.13" y="-2434.22" font-family="Times,serif" font-size="14.00">DONE</text>
</g>
<!-- RegistrationRound -->
<g id="node4" class="node">
<title>RegistrationRound</title>
<ellipse fill="none" stroke="black" cx="568.13" cy="-77.34" rx="77.19" ry="77.19"/>
<text text-anchor="middle" x="568.13" y="-73.64" font-family="Times,serif" font-size="14.00">RegistrationRound</text>
</g>
<!-- RegistrationRound&#45;&gt;CollectObservationRound -->
<g id="edge3" class="edge">
<title>RegistrationRound&#45;&gt;CollectObservationRound</title>
<path fill="none" stroke="black" d="M491.94,-90.91C337.72,-118.52 3.13,-190.33 3.13,-293.73 3.13,-2310.73 3.13,-2310.73 3.13,-2310.73 3.13,-2371.62 -9.4,-2397.49 28.13,-2445.42 65.96,-2493.73 127.65,-2523.18 181.88,-2540.76"/>
<polygon fill="black" stroke="black" points="180.97,-2544.15 191.56,-2543.81 183.07,-2537.47 180.97,-2544.15"/>
<text text-anchor="middle" x="22.13" y="-1235.81" font-family="Times,serif" font-size="14.00">DONE</text>
</g>
<!-- SelectKeeperSafeRound&#45;&gt;RandomnessSafeRound -->
<g id="edge8" class="edge">
<title>SelectKeeperSafeRound&#45;&gt;RandomnessSafeRound</title>
<path fill="none" stroke="black" d="M346.99,-4230.82C314.42,-4254.22 289.5,-4284.19 310.13,-4314.49 350.19,-4373.33 426.39,-4401.23 489.79,-4414.46"/>
<polygon fill="black" stroke="black" points="489.35,-4417.94 499.84,-4416.46 490.72,-4411.07 489.35,-4417.94"/>
<text text-anchor="middle" x="368.63" y="-4303.29" font-family="Times,serif" font-size="14.00">ROUND_TIMEOUT</text>
</g>
<!-- SelectKeeperSafeRound&#45;&gt;RandomnessSafeRound -->
<g id="edge9" class="edge">
<title>SelectKeeperSafeRound&#45;&gt;RandomnessSafeRound</title>
<path fill="none" stroke="black" d="M433.72,-4281.65C436.44,-4293.17 440.42,-4304.41 446.13,-4314.49 459.72,-4338.45 480.74,-4358.88 502.71,-4375.48"/>
<polygon fill="black" stroke="black" points="500.7,-4378.34 510.84,-4381.42 504.83,-4372.69 500.7,-4378.34"/>
<text text-anchor="middle" x="494.13" y="-4303.29" font-family="Times,serif" font-size="14.00">NO_MAJORITY</text>
</g>
<!-- DeploySafeRound -->
<g id="node6" class="node">
<title>DeploySafeRound</title>
<ellipse fill="none" stroke="black" cx="445.13" cy="-3961.42" rx="75.29" ry="75.29"/>
<text text-anchor="middle" x="445.13" y="-3957.72" font-family="Times,serif" font-size="14.00">DeploySafeRound</text>
</g>
<!-- SelectKeeperSafeRound&#45;&gt;DeploySafeRound -->
<g id="edge7" class="edge">
<title>SelectKeeperSafeRound&#45;&gt;DeploySafeRound</title>
<path fill="none" stroke="black" d="M414.41,-4089.27C414,-4077.65 414.43,-4065.95 416.13,-4054.81 416.74,-4050.86 417.48,-4046.84 418.33,-4042.81"/>
<polygon fill="black" stroke="black" points="421.81,-4043.3 420.65,-4032.77 414.99,-4041.73 421.81,-4043.3"/>
<text text-anchor="middle" x="435.13" y="-4058.61" font-family="Times,serif" font-size="14.00">DONE</text>
</g>
<!-- DeploySafeRound&#45;&gt;SelectKeeperSafeRound -->
<g id="edge11" class="edge">
<title>DeploySafeRound&#45;&gt;SelectKeeperSafeRound</title>
<path fill="none" stroke="black" d="M452.99,-4036.5C453.45,-4042.69 453.84,-4048.85 454.13,-4054.81 454.53,-4063.04 454.38,-4071.52 453.82,-4080.02"/>
<polygon fill="black" stroke="black" points="450.33,-4079.74 452.98,-4090 457.3,-4080.33 450.33,-4079.74"/>
<text text-anchor="middle" x="515.13" y="-4058.61" font-family="Times,serif" font-size="14.00">DEPLOY_TIMEOUT</text>
</g>
<!-- DeploySafeRound&#45;&gt;SelectKeeperSafeRound -->
<g id="edge12" class="edge">
<title>DeploySafeRound&#45;&gt;SelectKeeperSafeRound</title>
<path fill="none" stroke="black" d="M388.62,-4011.43C377.41,-4024.3 367.23,-4039.04 361.13,-4054.81 354.9,-4070.94 356.93,-4087.55 363.29,-4103.26"/>
<polygon fill="black" stroke="black" points="360.13,-4104.78 367.5,-4112.39 366.49,-4101.85 360.13,-4104.78"/>
<text text-anchor="middle" x="385.63" y="-4058.61" font-family="Times,serif" font-size="14.00">FAILED</text>
</g>
<!-- ValidateSafeRound -->
<g id="node7" class="node">
<title>ValidateSafeRound</title>
<ellipse fill="none" stroke="black" cx="705.13" cy="-3756.38" rx="78.79" ry="78.79"/>
<text text-anchor="middle" x="705.13" y="-3752.68" font-family="Times,serif" font-size="14.00">ValidateSafeRound</text>
</g>
<!-- DeploySafeRound&#45;&gt;ValidateSafeRound -->
<g id="edge10" class="edge">
<title>DeploySafeRound&#45;&gt;ValidateSafeRound</title>
<path fill="none" stroke="black" d="M500.61,-3910.27C521.67,-3891.79 546.13,-3871 569.13,-3853.02 589.02,-3837.48 611.2,-3821.39 631.77,-3806.95"/>
<polygon fill="black" stroke="black" points="633.98,-3809.68 640.17,-3801.08 629.97,-3803.94 633.98,-3809.68"/>
<text text-anchor="middle" x="588.13" y="-3856.82" font-family="Times,serif" font-size="14.00">DONE</text>
</g>
<!-- ValidateSafeRound&#45;&gt;RandomnessSafeRound -->
<g id="edge14" class="edge">
<title>ValidateSafeRound&#45;&gt;RandomnessSafeRound</title>
<path fill="none" stroke="black" d="M680.21,-3831.01C661.1,-3890.64 635.75,-3977.19 622.13,-4054.81 606.47,-4144.12 599.56,-4247.01 596.52,-4321.85"/>
<polygon fill="black" stroke="black" points="593.01,-4322.09 596.12,-4332.22 600,-4322.36 593.01,-4322.09"/>
<text text-anchor="middle" x="655.63" y="-4058.61" font-family="Times,serif" font-size="14.00">NEGATIVE</text>
</g>
<!-- ValidateSafeRound&#45;&gt;RandomnessSafeRound -->
<g id="edge15" class="edge">
<title>ValidateSafeRound&#45;&gt;RandomnessSafeRound</title>
<path fill="none" stroke="black" d="M705.65,-3835.2C704.99,-3898.7 701.58,-3990.53 689.13,-4069.81 675.25,-4158.21 648.24,-4256.3 626.55,-4327.19"/>
<polygon fill="black" stroke="black" points="623.13,-4326.42 623.53,-4337 629.82,-4328.48 623.13,-4326.42"/>
<text text-anchor="middle" x="709.13" y="-4058.61" font-family="Times,serif" font-size="14.00">NONE</text>
</g>
<!-- ValidateSafeRound&#45;&gt;RandomnessSafeRound -->
<g id="edge16" class="edge">
<title>ValidateSafeRound&#45;&gt;RandomnessSafeRound</title>
<path fill="none" stroke="black" d="M716.95,-3834.31C717.75,-3840.63 718.49,-3846.93 719.13,-3853.02 739.16,-4043.32 749.39,-4104.31 677.13,-4281.49 669.47,-4300.29 659.78,-4319.65 649.76,-4337.86"/>
<polygon fill="black" stroke="black" points="646.64,-4336.26 644.82,-4346.69 652.75,-4339.67 646.64,-4336.26"/>
<text text-anchor="middle" x="800.13" y="-4058.61" font-family="Times,serif" font-size="14.00">VALIDATE_TIMEOUT</text>
</g>
<!-- ValidateSafeRound&#45;&gt;RandomnessSafeRound -->
<g id="edge17" class="edge">
<title>ValidateSafeRound&#45;&gt;RandomnessSafeRound</title>
<path fill="none" stroke="black" d="M763.36,-3809.56C822.93,-3869.61 902.62,-3972.51 871.13,-4069.81 833.82,-4185.13 740.54,-4291.22 672.5,-4357.16"/>
<polygon fill="black" stroke="black" points="669.95,-4354.76 665.17,-4364.21 674.8,-4359.81 669.95,-4354.76"/>
<text text-anchor="middle" x="922.13" y="-4058.61" font-family="Times,serif" font-size="14.00">NO_MAJORITY</text>
</g>
<!-- RandomnessOracleRound -->
<g id="node8" class="node">
<title>RandomnessOracleRound</title>
<ellipse fill="none" stroke="black" cx="672.13" cy="-3524.05" rx="102.88" ry="102.88"/>
<text text-anchor="middle" x="672.13" y="-3520.35" font-family="Times,serif" font-size="14.00">RandomnessOracleRound</text>
</g>
<!-- ValidateSafeRound&#45;&gt;RandomnessOracleRound -->
<g id="edge13" class="edge">
<title>ValidateSafeRound&#45;&gt;RandomnessOracleRound</title>
<path fill="none" stroke="black" d="M694.1,-3678.36C692.14,-3664.65 690.06,-3650.13 687.99,-3635.71"/>
<polygon fill="black" stroke="black" points="691.44,-3635.15 686.56,-3625.75 684.52,-3636.14 691.44,-3635.15"/>
<text text-anchor="middle" x="709.13" y="-3648.54" font-family="Times,serif" font-size="14.00">DONE</text>
</g>
<!-- RandomnessOracleRound&#45;&gt;RandomnessOracleRound -->
<g id="edge19" class="edge">
<title>RandomnessOracleRound&#45;&gt;RandomnessOracleRound</title>
<path fill="none" stroke="black" d="M774.71,-3534.07C785.73,-3532.14 792.83,-3528.8 792.83,-3524.05 792.83,-3520.93 789.77,-3518.42 784.56,-3516.52"/>
<polygon fill="black" stroke="black" points="785.26,-3513.08 774.71,-3514.03 783.55,-3519.87 785.26,-3513.08"/>
<text text-anchor="middle" x="851.33" y="-3520.35" font-family="Times,serif" font-size="14.00">ROUND_TIMEOUT</text>
</g>
<!-- RandomnessOracleRound&#45;&gt;RandomnessOracleRound -->
<g id="edge20" class="edge">
<title>RandomnessOracleRound&#45;&gt;RandomnessOracleRound</title>
<path fill="none" stroke="black" d="M772.41,-3546.88C838.5,-3551.19 909.83,-3543.58 909.83,-3524.05 909.83,-3505.51 845.56,-3497.71 782.51,-3500.65"/>
<polygon fill="black" stroke="black" points="782.2,-3497.16 772.41,-3501.22 782.59,-3504.15 782.2,-3497.16"/>
<text text-anchor="middle" x="957.83" y="-3520.35" font-family="Times,serif" font-size="14.00">NO_MAJORITY</text>
</g>
<!-- SelectKeeperOracleRound -->
<g id="node9" class="node">
<title>SelectKeeperOracleRound</title>
<ellipse fill="none" stroke="black" cx="477.13" cy="-3265.71" rx="104.78" ry="104.78"/>
<text text-anchor="middle" x="477.13" y="-3262.01" font-family="Times,serif" font-size="14.00">SelectKeeperOracleRound</text>
</g>
<!-- RandomnessOracleRound&#45;&gt;SelectKeeperOracleRound -->
<g id="edge18" class="edge">
<title>RandomnessOracleRound&#45;&gt;SelectKeeperOracleRound</title>
<path fill="none" stroke="black" d="M622.23,-3433.98C612.48,-3418.39 601.91,-3402.61 591.13,-3388.36 580.92,-3374.84 569.42,-3361.15 557.76,-3348.07"/>
<polygon fill="black" stroke="black" points="560.18,-3345.53 550.88,-3340.45 554.98,-3350.22 560.18,-3345.53"/>
<text text-anchor="middle" x="620.13" y="-3392.16" font-family="Times,serif" font-size="14.00">DONE</text>
</g>
<!-- SelectKeeperOracleRound&#45;&gt;RandomnessOracleRound -->
<g id="edge22" class="edge">
<title>SelectKeeperOracleRound&#45;&gt;RandomnessOracleRound</title>
<path fill="none" stroke="black" d="M386.73,-3319C356.26,-3343.44 334.61,-3373.66 355.13,-3403.36 400.9,-3469.56 488.29,-3499.19 559.74,-3512.42"/>
<polygon fill="black" stroke="black" points="559.26,-3515.89 569.71,-3514.18 560.47,-3509 559.26,-3515.89"/>
<text text-anchor="middle" x="413.63" y="-3392.16" font-family="Times,serif" font-size="14.00">ROUND_TIMEOUT</text>
</g>
<!-- SelectKeeperOracleRound&#45;&gt;RandomnessOracleRound -->
<g id="edge23" class="edge">
<title>SelectKeeperOracleRound&#45;&gt;RandomnessOracleRound</title>
<path fill="none" stroke="black" d="M477.92,-3370.65C480.84,-3382.18 485.08,-3393.36 491.13,-3403.36 509.6,-3433.86 539.16,-3458.17 569.08,-3476.7"/>
<polygon fill="black" stroke="black" points="567.56,-3479.87 577.94,-3482.02 571.16,-3473.87 567.56,-3479.87"/>
<text text-anchor="middle" x="539.13" y="-3392.16" font-family="Times,serif" font-size="14.00">NO_MAJORITY</text>
</g>
<!-- DeployOracleRound -->
<g id="node10" class="node">
<title>DeployOracleRound</title>
<ellipse fill="none" stroke="black" cx="491.13" cy="-3026.88" rx="83.39" ry="83.39"/>
<text text-anchor="middle" x="491.13" y="-3023.18" font-family="Times,serif" font-size="14.00">DeployOracleRound</text>
</g>
<!-- SelectKeeperOracleRound&#45;&gt;DeployOracleRound -->
<g id="edge21" class="edge">
<title>SelectKeeperOracleRound&#45;&gt;DeployOracleRound</title>
<path fill="none" stroke="black" d="M459.3,-3162.41C459.02,-3150.82 459.51,-3139.18 461.13,-3128.07 461.71,-3124.14 462.41,-3120.15 463.2,-3116.14"/>
<polygon fill="black" stroke="black" points="466.67,-3116.66 465.35,-3106.15 459.82,-3115.19 466.67,-3116.66"/>
<text text-anchor="middle" x="480.13" y="-3131.87" font-family="Times,serif" font-size="14.00">DONE</text>
</g>
<!-- DeployOracleRound&#45;&gt;SelectKeeperOracleRound -->
<g id="edge25" class="edge">
<title>DeployOracleRound&#45;&gt;SelectKeeperOracleRound</title>
<path fill="none" stroke="black" d="M498.22,-3109.87C498.58,-3116.02 498.9,-3122.15 499.13,-3128.07 499.46,-3136.18 499.31,-3144.53 498.82,-3152.91"/>
<polygon fill="black" stroke="black" points="495.31,-3152.9 498.05,-3163.14 502.29,-3153.43 495.31,-3152.9"/>
<text text-anchor="middle" x="560.13" y="-3131.87" font-family="Times,serif" font-size="14.00">DEPLOY_TIMEOUT</text>
</g>
<!-- DeployOracleRound&#45;&gt;SelectKeeperOracleRound -->
<g id="edge26" class="edge">
<title>DeployOracleRound&#45;&gt;SelectKeeperOracleRound</title>
<path fill="none" stroke="black" d="M431.29,-3084.86C420.99,-3097.98 411.79,-3112.66 406.13,-3128.07 400.41,-3143.66 401.65,-3159.73 406.8,-3175.12"/>
<polygon fill="black" stroke="black" points="403.6,-3176.56 410.49,-3184.61 410.13,-3174.02 403.6,-3176.56"/>
<text text-anchor="middle" x="430.63" y="-3131.87" font-family="Times,serif" font-size="14.00">FAILED</text>
</g>
<!-- ValidateOracleRound -->
<g id="node11" class="node">
<title>ValidateOracleRound</title>
<ellipse fill="none" stroke="black" cx="711.13" cy="-2806.25" rx="86.38" ry="86.38"/>
<text text-anchor="middle" x="711.13" y="-2802.55" font-family="Times,serif" font-size="14.00">ValidateOracleRound</text>
</g>
<!-- DeployOracleRound&#45;&gt;ValidateOracleRound -->
<g id="edge24" class="edge">
<title>DeployOracleRound&#45;&gt;ValidateOracleRound</title>
<path fill="none" stroke="black" d="M549.8,-2967.58C578.32,-2939.24 612.76,-2905.01 642.49,-2875.46"/>
<polygon fill="black" stroke="black" points="645.32,-2877.59 649.94,-2868.06 640.38,-2872.62 645.32,-2877.59"/>
<text text-anchor="middle" x="620.13" y="-2914.49" font-family="Times,serif" font-size="14.00">DONE</text>
</g>
<!-- ValidateOracleRound&#45;&gt;CollectObservationRound -->
<g id="edge27" class="edge">
<title>ValidateOracleRound&#45;&gt;CollectObservationRound</title>
<path fill="none" stroke="black" d="M636.23,-2762.67C567.58,-2723.66 465.49,-2665.64 390.33,-2622.92"/>
<polygon fill="black" stroke="black" points="391.73,-2619.69 381.3,-2617.79 388.27,-2625.78 391.73,-2619.69"/>
<text text-anchor="middle" x="545.13" y="-2690.6" font-family="Times,serif" font-size="14.00">DONE</text>
</g>
<!-- ValidateOracleRound&#45;&gt;RandomnessOracleRound -->
<g id="edge28" class="edge">
<title>ValidateOracleRound&#45;&gt;RandomnessOracleRound</title>
<path fill="none" stroke="black" d="M696.35,-2891.7C685.83,-2956.21 672.64,-3047.44 667.13,-3128.07 660.62,-3223.54 662.69,-3332.28 665.93,-3411.46"/>
<polygon fill="black" stroke="black" points="662.43,-3411.61 666.35,-3421.45 669.42,-3411.31 662.43,-3411.61"/>
<text text-anchor="middle" x="700.63" y="-3131.87" font-family="Times,serif" font-size="14.00">NEGATIVE</text>
</g>
<!-- ValidateOracleRound&#45;&gt;RandomnessOracleRound -->
<g id="edge29" class="edge">
<title>ValidateOracleRound&#45;&gt;RandomnessOracleRound</title>
<path fill="none" stroke="black" d="M718.92,-2892.61C724.41,-2957.2 731.27,-3048.13 734.13,-3128.07 737.64,-3225.86 718.48,-3335.72 700.56,-3414.7"/>
<polygon fill="black" stroke="black" points="697.1,-3414.14 698.27,-3424.67 703.92,-3415.71 697.1,-3414.14"/>
<text text-anchor="middle" x="753.13" y="-3131.87" font-family="Times,serif" font-size="14.00">NONE</text>
</g>
<!-- ValidateOracleRound&#45;&gt;RandomnessOracleRound -->
<g id="edge30" class="edge">
<title>ValidateOracleRound&#45;&gt;RandomnessOracleRound</title>
<path fill="none" stroke="black" d="M730.61,-2890.47C734.56,-2908.02 738.59,-2926.44 742.13,-2943.69 758.92,-3025.31 768.55,-3045.09 776.13,-3128.07 786.07,-3236.76 766.88,-3265.64 736.13,-3370.36 731.26,-3386.95 725.14,-3404.19 718.63,-3420.84"/>
<polygon fill="black" stroke="black" points="715.21,-3419.98 714.76,-3430.57 721.71,-3422.57 715.21,-3419.98"/>
<text text-anchor="middle" x="844.13" y="-3131.87" font-family="Times,serif" font-size="14.00">VALIDATE_TIMEOUT</text>
</g>
<!-- ValidateOracleRound&#45;&gt;RandomnessOracleRound -->
<g id="edge31" class="edge">
<title>ValidateOracleRound&#45;&gt;RandomnessOracleRound</title>
<path fill="none" stroke="black" d="M778.83,-2860.56C849.81,-2923.43 946.97,-3033.33 915.13,-3143.07 882.51,-3255.54 805.07,-3366.28 746.31,-3438.92"/>
<polygon fill="black" stroke="black" points="743.57,-3436.75 739.97,-3446.71 749,-3441.17 743.57,-3436.75"/>
<text text-anchor="middle" x="965.13" y="-3131.87" font-family="Times,serif" font-size="14.00">NO_MAJORITY</text>
</g>
<!-- EstimateConsensusRound&#45;&gt;CollectObservationRound -->
<g id="edge35" class="edge">
<title>EstimateConsensusRound&#45;&gt;CollectObservationRound</title>
<path fill="none" stroke="black" d="M95.11,-2394.48C89.75,-2411.7 89.21,-2429.43 98.13,-2445.42 117.65,-2480.4 152.06,-2506.42 186.53,-2525.11"/>
<polygon fill="black" stroke="black" points="185.28,-2528.41 195.76,-2529.95 188.53,-2522.21 185.28,-2528.41"/>
<text text-anchor="middle" x="156.63" y="-2434.22" font-family="Times,serif" font-size="14.00">ROUND_TIMEOUT</text>
</g>
<!-- EstimateConsensusRound&#45;&gt;CollectObservationRound -->
<g id="edge36" class="edge">
<title>EstimateConsensusRound&#45;&gt;CollectObservationRound</title>
<path fill="none" stroke="black" d="M202.17,-2400.46C213.85,-2421.84 226.37,-2444.76 238.26,-2466.51"/>
<polygon fill="black" stroke="black" points="235.26,-2468.33 243.13,-2475.43 241.4,-2464.97 235.26,-2468.33"/>
<text text-anchor="middle" x="271.13" y="-2434.22" font-family="Times,serif" font-size="14.00">NO_MAJORITY</text>
</g>
<!-- TxHashRound -->
<g id="node13" class="node">
<title>TxHashRound</title>
<ellipse fill="none" stroke="black" cx="329.13" cy="-2094.3" rx="61.99" ry="61.99"/>
<text text-anchor="middle" x="329.13" y="-2090.6" font-family="Times,serif" font-size="14.00">TxHashRound</text>
</g>
<!-- EstimateConsensusRound&#45;&gt;TxHashRound -->
<g id="edge34" class="edge">
<title>EstimateConsensusRound&#45;&gt;TxHashRound</title>
<path fill="none" stroke="black" d="M218.17,-2229.86C239.9,-2203.51 263.64,-2174.72 283.56,-2150.56"/>
<polygon fill="black" stroke="black" points="286.5,-2152.5 290.17,-2142.55 281.1,-2148.04 286.5,-2152.5"/>
<text text-anchor="middle" x="281.13" y="-2177.84" font-family="Times,serif" font-size="14.00">DONE</text>
</g>
<!-- TxHashRound&#45;&gt;CollectObservationRound -->
<g id="edge38" class="edge">
<title>TxHashRound&#45;&gt;CollectObservationRound</title>
<path fill="none" stroke="black" d="M332.42,-2156.03C335.2,-2226.12 336.85,-2344.67 323.13,-2445.42 322.63,-2449.15 322.04,-2452.93 321.4,-2456.74"/>
<polygon fill="black" stroke="black" points="317.9,-2456.39 319.55,-2466.85 324.79,-2457.65 317.9,-2456.39"/>
<text text-anchor="middle" x="354.13" y="-2306.03" font-family="Times,serif" font-size="14.00">NONE</text>
</g>
<!-- TxHashRound&#45;&gt;CollectObservationRound -->
<g id="edge39" class="edge">
<title>TxHashRound&#45;&gt;CollectObservationRound</title>
<path fill="none" stroke="black" d="M357.54,-2149.27C365.52,-2167.15 373.11,-2187.5 377.13,-2207.04 395.52,-2296.45 400.07,-2324.07 377.13,-2412.42 371.96,-2432.36 363.55,-2452.46 353.99,-2471.24"/>
<polygon fill="black" stroke="black" points="350.76,-2469.86 349.21,-2480.34 356.96,-2473.11 350.76,-2469.86"/>
<text text-anchor="middle" x="450.63" y="-2306.03" font-family="Times,serif" font-size="14.00">ROUND_TIMEOUT</text>
</g>
<!-- TxHashRound&#45;&gt;CollectObservationRound -->
<g id="edge40" class="edge">
<title>TxHashRound&#45;&gt;CollectObservationRound</title>
<path fill="none" stroke="black" d="M387.93,-2113.46C431.06,-2130.23 486.56,-2159.81 513.13,-2207.04 557.9,-2286.59 555.54,-2331.59 513.13,-2412.42 488,-2460.33 440.26,-2496.18 395.56,-2521.05"/>
<polygon fill="black" stroke="black" points="393.79,-2518.04 386.67,-2525.88 397.13,-2524.19 393.79,-2518.04"/>
<text text-anchor="middle" x="593.13" y="-2306.03" font-family="Times,serif" font-size="14.00">NO_MAJORITY</text>
</g>
<!-- RandomnessTransactionSubmissionRound -->
<g id="node14" class="node">
<title>RandomnessTransactionSubmissionRound</title>
<ellipse fill="none" stroke="black" cx="247.13" cy="-1819.07" rx="162.47" ry="162.47"/>
<text text-anchor="middle" x="247.13" y="-1815.37" font-family="Times,serif" font-size="14.00">RandomnessTransactionSubmissionRound</text>
</g>
<!-- TxHashRound&#45;&gt;RandomnessTransactionSubmissionRound -->
<g id="edge37" class="edge">
<title>TxHashRound&#45;&gt;RandomnessTransactionSubmissionRound</title>
<path fill="none" stroke="black" d="M311.64,-2035.02C307.08,-2019.81 301.93,-2002.65 296.58,-1984.81"/>
<polygon fill="black" stroke="black" points="299.81,-1983.42 293.59,-1974.85 293.11,-1985.43 299.81,-1983.42"/>
<text text-anchor="middle" x="324.13" y="-2003.35" font-family="Times,serif" font-size="14.00">DONE</text>
</g>
<!-- RandomnessTransactionSubmissionRound&#45;&gt;RandomnessTransactionSubmissionRound -->
<g id="edge43" class="edge">
<title>RandomnessTransactionSubmissionRound&#45;&gt;RandomnessTransactionSubmissionRound</title>
<path fill="none" stroke="black" d="M407.59,-1845.36C419.98,-1839.55 427.62,-1830.78 427.62,-1819.07 427.62,-1810.46 423.5,-1803.45 416.41,-1798.03"/>
<polygon fill="black" stroke="black" points="417.97,-1794.89 407.59,-1792.77 414.39,-1800.9 417.97,-1794.89"/>
<text text-anchor="middle" x="475.62" y="-1815.37" font-family="Times,serif" font-size="14.00">NO_MAJORITY</text>
</g>
<!-- SelectKeeperTransactionSubmissionRoundA -->
<g id="node15" class="node">
<title>SelectKeeperTransactionSubmissionRoundA</title>
<ellipse fill="none" stroke="black" cx="362.13" cy="-1435.3" rx="170.07" ry="170.07"/>
<text text-anchor="middle" x="362.13" y="-1431.6" font-family="Times,serif" font-size="14.00">SelectKeeperTransactionSubmissionRoundA</text>
</g>
<!-- RandomnessTransactionSubmissionRound&#45;&gt;SelectKeeperTransactionSubmissionRoundA -->
<g id="edge41" class="edge">
<title>RandomnessTransactionSubmissionRound&#45;&gt;SelectKeeperTransactionSubmissionRoundA</title>
<path fill="none" stroke="black" d="M293.74,-1663.34C299.18,-1645.29 304.75,-1626.8 310.25,-1608.53"/>
<polygon fill="black" stroke="black" points="313.68,-1609.3 313.21,-1598.71 306.97,-1607.28 313.68,-1609.3"/>
<text text-anchor="middle" x="324.13" y="-1627.38" font-family="Times,serif" font-size="14.00">DONE</text>
</g>
<!-- ResetRound -->
<g id="node16" class="node">
<title>ResetRound</title>
<ellipse fill="none" stroke="black" cx="512.13" cy="-294.73" rx="53.89" ry="53.89"/>
<text text-anchor="middle" x="512.13" y="-291.03" font-family="Times,serif" font-size="14.00">ResetRound</text>
</g>
<!-- RandomnessTransactionSubmissionRound&#45;&gt;ResetRound -->
<g id="edge42" class="edge">
<title>RandomnessTransactionSubmissionRound&#45;&gt;ResetRound</title>
<path fill="none" stroke="black" d="M173.4,-1674.19C144.06,-1604.26 117.13,-1517.86 117.13,-1436.3 117.13,-1436.3 117.13,-1436.3 117.13,-603.41 117.13,-528.2 91.93,-498.95 131.13,-434.77 196.96,-327.01 357.54,-301.99 447.81,-296.68"/>
<polygon fill="black" stroke="black" points="448.12,-300.16 457.92,-296.15 447.75,-293.17 448.12,-300.16"/>
<text text-anchor="middle" x="175.63" y="-998.93" font-family="Times,serif" font-size="14.00">ROUND_TIMEOUT</text>
</g>
<!-- SelectKeeperTransactionSubmissionRoundA&#45;&gt;ResetRound -->
<g id="edge45" class="edge">
<title>SelectKeeperTransactionSubmissionRoundA&#45;&gt;ResetRound</title>
<path fill="none" stroke="black" d="M532.6,-1427.67C733.73,-1409.65 1041.13,-1345.56 1041.13,-1122.07 1041.13,-1122.07 1041.13,-1122.07 1041.13,-603.41 1041.13,-492.76 998.57,-441.06 895.13,-401.77 822.87,-374.32 797.03,-402.92 722.13,-383.77 668.37,-370.02 610.42,-344.88 569.04,-324.97"/>
<polygon fill="black" stroke="black" points="570.47,-321.77 559.95,-320.55 567.41,-328.07 570.47,-321.77"/>
<text text-anchor="middle" x="1099.63" y="-897.38" font-family="Times,serif" font-size="14.00">ROUND_TIMEOUT</text>
</g>
<!-- SelectKeeperTransactionSubmissionRoundA&#45;&gt;ResetRound -->
<g id="edge46" class="edge">
<title>SelectKeeperTransactionSubmissionRoundA&#45;&gt;ResetRound</title>
<path fill="none" stroke="black" d="M315.15,-1271.37C260.04,-1079.99 175.9,-786.72 174.13,-774.04 153.29,-624.7 93.04,-561.89 174.13,-434.77 233.45,-341.79 368.04,-310.97 448.34,-300.77"/>
<polygon fill="black" stroke="black" points="448.82,-304.24 458.33,-299.57 447.99,-297.29 448.82,-304.24"/>
<text text-anchor="middle" x="279.13" y="-897.38" font-family="Times,serif" font-size="14.00">NO_MAJORITY</text>
</g>
<!-- CollectSignatureRound -->
<g id="node17" class="node">
<title>CollectSignatureRound</title>
<ellipse fill="none" stroke="black" cx="721.13" cy="-1121.07" rx="92.88" ry="92.88"/>
<text text-anchor="middle" x="721.13" y="-1117.37" font-family="Times,serif" font-size="14.00">CollectSignatureRound</text>
</g>
<!-- SelectKeeperTransactionSubmissionRoundA&#45;&gt;CollectSignatureRound -->
<g id="edge44" class="edge">
<title>SelectKeeperTransactionSubmissionRoundA&#45;&gt;CollectSignatureRound</title>
<path fill="none" stroke="black" d="M490.22,-1322.9C541.52,-1278.28 598.94,-1228.34 643.69,-1189.42"/>
<polygon fill="black" stroke="black" points="646.08,-1191.99 651.32,-1182.78 641.48,-1186.71 646.08,-1191.99"/>
<text text-anchor="middle" x="603.13" y="-1235.81" font-family="Times,serif" font-size="14.00">DONE</text>
</g>
<!-- ResetRound&#45;&gt;RegistrationRound -->
<g id="edge62" class="edge">
<title>ResetRound&#45;&gt;RegistrationRound</title>
<path fill="none" stroke="black" d="M529.46,-243.63C535.2,-226.06 541.34,-206.12 546.13,-187.69 548.16,-179.89 550.11,-171.74 551.95,-163.56"/>
<polygon fill="black" stroke="black" points="555.42,-164.11 554.15,-153.59 548.58,-162.61 555.42,-164.11"/>
<text text-anchor="middle" x="604.13" y="-176.49" font-family="Times,serif" font-size="14.00">RESET_TIMEOUT</text>
</g>
<!-- ResetRound&#45;&gt;RegistrationRound -->
<g id="edge63" class="edge">
<title>ResetRound&#45;&gt;RegistrationRound</title>
<path fill="none" stroke="black" d="M472.53,-257.87C451.17,-234.01 431.84,-201.8 446.13,-172.69 456.26,-152.05 473.32,-134.65 491.52,-120.63"/>
<polygon fill="black" stroke="black" points="493.96,-123.17 499.94,-114.42 489.81,-117.54 493.96,-123.17"/>
<text text-anchor="middle" x="494.13" y="-176.49" font-family="Times,serif" font-size="14.00">NO_MAJORITY</text>
</g>
<!-- ResetRound&#45;&gt;RandomnessTransactionSubmissionRound -->
<g id="edge61" class="edge">
<title>ResetRound&#45;&gt;RandomnessTransactionSubmissionRound</title>
<path fill="none" stroke="black" d="M458.93,-304.69C385.59,-318.46 250.62,-348.92 146.13,-401.77 58.56,-446.07 56.13,-505.27 56.13,-603.41 56.13,-1436.3 56.13,-1436.3 56.13,-1436.3 56.13,-1524.25 97.18,-1612.7 141.22,-1682.28"/>
<polygon fill="black" stroke="black" points="138.53,-1684.58 146.88,-1691.11 144.42,-1680.8 138.53,-1684.58"/>
<text text-anchor="middle" x="75.13" y="-998.93" font-family="Times,serif" font-size="14.00">DONE</text>
</g>
<!-- CollectSignatureRound&#45;&gt;ResetRound -->
<g id="edge48" class="edge">
<title>CollectSignatureRound&#45;&gt;ResetRound</title>
<path fill="none" stroke="black" d="M715.54,-1027.93C716.33,-954.26 730.06,-853.47 791.13,-792.04 817.44,-765.58 849.75,-803.12 873.13,-774.04 920.39,-715.29 910.28,-500.38 873.13,-434.77 859.09,-409.96 844.78,-411.89 818.13,-401.77 777.55,-386.36 763.72,-396.23 722.13,-383.77 668.97,-367.84 610.97,-342.9 569.42,-323.63"/>
<polygon fill="black" stroke="black" points="570.82,-320.43 560.28,-319.36 567.86,-326.77 570.82,-320.43"/>
<text text-anchor="middle" x="849.63" y="-795.84" font-family="Times,serif" font-size="14.00">ROUND_TIMEOUT</text>
</g>
<!-- CollectSignatureRound&#45;&gt;ResetRound -->
<g id="edge49" class="edge">
<title>CollectSignatureRound&#45;&gt;ResetRound</title>
<path fill="none" stroke="black" d="M779.36,-1048.47C824.41,-988.17 883.17,-897.51 908.13,-807.04 952.15,-647.53 982.43,-579.46 902.13,-434.77 861.79,-362.07 802.32,-405.77 722.13,-383.77 668.62,-369.08 610.64,-344.03 569.2,-324.39"/>
<polygon fill="black" stroke="black" points="570.62,-321.19 560.09,-320.04 567.6,-327.51 570.62,-321.19"/>
<text text-anchor="middle" x="960.13" y="-795.84" font-family="Times,serif" font-size="14.00">NO_MAJORITY</text>
</g>
<!-- FinalizationRound -->
<g id="node18" class="node">
<title>FinalizationRound</title>
<ellipse fill="none" stroke="black" cx="565.13" cy="-901.08" rx="76.09" ry="76.09"/>
<text text-anchor="middle" x="565.13" y="-897.38" font-family="Times,serif" font-size="14.00">FinalizationRound</text>
</g>
<!-- CollectSignatureRound&#45;&gt;FinalizationRound -->
<g id="edge47" class="edge">
<title>CollectSignatureRound&#45;&gt;FinalizationRound</title>
<path fill="none" stroke="black" d="M667.45,-1045.05C650.42,-1021.25 631.67,-995.06 614.93,-971.66"/>
<polygon fill="black" stroke="black" points="617.76,-969.61 609.1,-963.51 612.07,-973.68 617.76,-969.61"/>
<text text-anchor="middle" x="657.13" y="-998.93" font-family="Times,serif" font-size="14.00">DONE</text>
</g>
<!-- ValidateTransactionRound -->
<g id="node19" class="node">
<title>ValidateTransactionRound</title>
<ellipse fill="none" stroke="black" cx="645.13" cy="-604.41" rx="104.78" ry="104.78"/>
<text text-anchor="middle" x="645.13" y="-600.71" font-family="Times,serif" font-size="14.00">ValidateTransactionRound</text>
</g>
<!-- FinalizationRound&#45;&gt;ValidateTransactionRound -->
<g id="edge50" class="edge">
<title>FinalizationRound&#45;&gt;ValidateTransactionRound</title>
<path fill="none" stroke="black" d="M597.99,-832.21C601.38,-823.84 604.53,-815.32 607.13,-807.04 616.08,-778.65 623.23,-747.31 628.81,-717.98"/>
<polygon fill="black" stroke="black" points="632.26,-718.58 630.64,-708.11 625.37,-717.31 632.26,-718.58"/>
<text text-anchor="middle" x="629.13" y="-795.84" font-family="Times,serif" font-size="14.00">DONE</text>
</g>
<!-- SelectKeeperTransactionSubmissionRoundB -->
<g id="node20" class="node">
<title>SelectKeeperTransactionSubmissionRoundB</title>
<ellipse fill="none" stroke="black" cx="353.13" cy="-604.41" rx="169.77" ry="169.77"/>
<text text-anchor="middle" x="353.13" y="-600.71" font-family="Times,serif" font-size="14.00">SelectKeeperTransactionSubmissionRoundB</text>
</g>
<!-- FinalizationRound&#45;&gt;SelectKeeperTransactionSubmissionRoundB -->
<g id="edge51" class="edge">
<title>FinalizationRound&#45;&gt;SelectKeeperTransactionSubmissionRoundB</title>
<path fill="none" stroke="black" d="M489.97,-888.13C442.3,-876.25 384.15,-852.83 354.13,-807.04 349.22,-799.54 345.28,-791.53 342.16,-783.17"/>
<polygon fill="black" stroke="black" points="345.46,-781.99 338.99,-773.6 338.82,-784.2 345.46,-781.99"/>
<text text-anchor="middle" x="412.63" y="-795.84" font-family="Times,serif" font-size="14.00">ROUND_TIMEOUT</text>
</g>
<!-- FinalizationRound&#45;&gt;SelectKeeperTransactionSubmissionRoundB -->
<g id="edge52" class="edge">
<title>FinalizationRound&#45;&gt;SelectKeeperTransactionSubmissionRoundB</title>
<path fill="none" stroke="black" d="M518.93,-840.3C510.6,-829.3 502.05,-817.87 494.13,-807.04 481.4,-789.62 468.21,-771.22 455.23,-752.91"/>
<polygon fill="black" stroke="black" points="457.91,-750.65 449.28,-744.51 452.2,-754.69 457.91,-750.65"/>
<text text-anchor="middle" x="518.63" y="-795.84" font-family="Times,serif" font-size="14.00">FAILED</text>
</g>
<!-- ValidateTransactionRound&#45;&gt;ResetRound -->
<g id="edge54" class="edge">
<title>ValidateTransactionRound&#45;&gt;ResetRound</title>
<path fill="none" stroke="black" d="M590.9,-514.52C573.31,-487.97 552.94,-459.41 532.13,-434.77 524.63,-425.88 517.77,-427.44 513.13,-416.77 505.32,-398.8 503.06,-377.87 503.35,-358.51"/>
<polygon fill="black" stroke="black" points="506.86,-358.37 503.74,-348.25 499.87,-358.11 506.86,-358.37"/>
<text text-anchor="middle" x="546.63" y="-405.57" font-family="Times,serif" font-size="14.00">NEGATIVE</text>
</g>
<!-- ValidateTransactionRound&#45;&gt;ResetRound -->
<g id="edge55" class="edge">
<title>ValidateTransactionRound&#45;&gt;ResetRound</title>
<path fill="none" stroke="black" d="M618.36,-502.99C608.12,-470.04 595.21,-433.7 580.13,-401.77 571.43,-383.33 560.04,-364.25 549.09,-347.45"/>
<polygon fill="black" stroke="black" points="551.85,-345.29 543.41,-338.89 546.02,-349.16 551.85,-345.29"/>
<text text-anchor="middle" x="603.13" y="-405.57" font-family="Times,serif" font-size="14.00">NONE</text>
</g>
<!-- ValidateTransactionRound&#45;&gt;ResetRound -->
<g id="edge56" class="edge">
<title>ValidateTransactionRound&#45;&gt;ResetRound</title>
<path fill="none" stroke="black" d="M649.54,-499.76C647.28,-467.04 640.86,-431.66 626.13,-401.77 612.35,-373.79 587.83,-349.49 565.05,-331.23"/>
<polygon fill="black" stroke="black" points="567.13,-328.42 557.09,-325.03 562.83,-333.94 567.13,-328.42"/>
<text text-anchor="middle" x="699.13" y="-405.57" font-family="Times,serif" font-size="14.00">VALIDATE_TIMEOUT</text>
</g>
<!-- ValidateTransactionRound&#45;&gt;ValidateTransactionRound -->
<g id="edge57" class="edge">
<title>ValidateTransactionRound&#45;&gt;ValidateTransactionRound</title>
<path fill="none" stroke="black" d="M744.74,-636.86C758.55,-631.52 767.78,-620.7 767.78,-604.41 767.78,-591.93 762.37,-582.67 753.64,-576.61"/>
<polygon fill="black" stroke="black" points="755.23,-573.49 744.74,-571.95 751.98,-579.69 755.23,-573.49"/>
<text text-anchor="middle" x="815.78" y="-600.71" font-family="Times,serif" font-size="14.00">NO_MAJORITY</text>
</g>
<!-- ResetAndPauseRound -->
<g id="node21" class="node">
<title>ResetAndPauseRound</title>
<ellipse fill="none" stroke="black" cx="820.13" cy="-294.73" rx="89.08" ry="89.08"/>
<text text-anchor="middle" x="820.13" y="-291.03" font-family="Times,serif" font-size="14.00">ResetAndPauseRound</text>
</g>
<!-- ValidateTransactionRound&#45;&gt;ResetAndPauseRound -->
<g id="edge53" class="edge">
<title>ValidateTransactionRound&#45;&gt;ResetAndPauseRound</title>
<path fill="none" stroke="black" d="M706.69,-519.2C728.19,-487.88 751.56,-451.51 770.13,-416.77 775.14,-407.41 779.98,-397.43 784.56,-387.38"/>
<polygon fill="black" stroke="black" points="787.8,-388.7 788.68,-378.14 781.41,-385.84 787.8,-388.7"/>
<text text-anchor="middle" x="795.13" y="-405.57" font-family="Times,serif" font-size="14.00">DONE</text>
</g>
<!-- SelectKeeperTransactionSubmissionRoundB&#45;&gt;ResetRound -->
<g id="edge59" class="edge">
<title>SelectKeeperTransactionSubmissionRoundB&#45;&gt;ResetRound</title>
<path fill="none" stroke="black" d="M247.23,-471.73C239.44,-447.81 239.53,-423.56 254.13,-401.77 297.23,-337.46 387.1,-312.12 448.53,-302.15"/>
<polygon fill="black" stroke="black" points="449.15,-305.6 458.51,-300.63 448.1,-298.68 449.15,-305.6"/>
<text text-anchor="middle" x="312.63" y="-405.57" font-family="Times,serif" font-size="14.00">ROUND_TIMEOUT</text>
</g>
<!-- SelectKeeperTransactionSubmissionRoundB&#45;&gt;ResetRound -->
<g id="edge60" class="edge">
<title>SelectKeeperTransactionSubmissionRoundB&#45;&gt;ResetRound</title>
<path fill="none" stroke="black" d="M390.35,-438.75C395.55,-425.91 401.45,-413.41 408.13,-401.77 422.25,-377.18 443.42,-354.15 462.99,-335.88"/>
<polygon fill="black" stroke="black" points="465.37,-338.44 470.39,-329.11 460.65,-333.28 465.37,-338.44"/>
<text text-anchor="middle" x="456.13" y="-405.57" font-family="Times,serif" font-size="14.00">NO_MAJORITY</text>
</g>
<!-- SelectKeeperTransactionSubmissionRoundB&#45;&gt;FinalizationRound -->
<g id="edge58" class="edge">
<title>SelectKeeperTransactionSubmissionRoundB&#45;&gt;FinalizationRound</title>
<path fill="none" stroke="black" d="M479.17,-718.43C508.23,-746.84 533.48,-774.26 543.13,-792.04 547.14,-799.42 550.42,-807.43 553.1,-815.66"/>
<polygon fill="black" stroke="black" points="549.79,-816.79 555.99,-825.38 556.5,-814.8 549.79,-816.79"/>
<text text-anchor="middle" x="568.13" y="-795.84" font-family="Times,serif" font-size="14.00">DONE</text>
</g>
<!-- ResetAndPauseRound&#45;&gt;CollectObservationRound -->
<g id="edge64" class="edge">
<title>ResetAndPauseRound&#45;&gt;CollectObservationRound</title>
<path fill="none" stroke="black" d="M904.56,-324.11C1012.65,-366.41 1186.13,-457.1 1186.13,-603.41 1186.13,-2310.73 1186.13,-2310.73 1186.13,-2310.73 1186.13,-2471.41 645.16,-2536.04 404.85,-2556.82"/>
<polygon fill="black" stroke="black" points="404.35,-2553.35 394.69,-2557.69 404.95,-2560.32 404.35,-2553.35"/>
<text text-anchor="middle" x="1205.13" y="-1431.6" font-family="Times,serif" font-size="14.00">DONE</text>
</g>
<!-- ResetAndPauseRound&#45;&gt;RegistrationRound -->
<g id="edge65" class="edge">
<title>ResetAndPauseRound&#45;&gt;RegistrationRound</title>
<path fill="none" stroke="black" d="M815,-205.79C811.32,-193.79 805.93,-182.31 798.13,-172.69 762.68,-128.9 703.57,-105.24 654.16,-92.56"/>
<polygon fill="black" stroke="black" points="654.96,-89.15 644.41,-90.17 653.29,-95.95 654.96,-89.15"/>
<text text-anchor="middle" x="904.13" y="-176.49" font-family="Times,serif" font-size="14.00">RESET_AND_PAUSE_TIMEOUT</text>
</g>
<!-- ResetAndPauseRound&#45;&gt;RegistrationRound -->
<g id="edge66" class="edge">
<title>ResetAndPauseRound&#45;&gt;RegistrationRound</title>
<path fill="none" stroke="black" d="M752.93,-236.29C716.18,-204.88 670.82,-166.11 634.24,-134.85"/>
<polygon fill="black" stroke="black" points="636.45,-132.13 626.58,-128.3 631.91,-137.45 636.45,-132.13"/>
<text text-anchor="middle" x="742.13" y="-176.49" font-family="Times,serif" font-size="14.00">NO_MAJORITY</text>
</g>
</g>
</svg>
