<?xml version="1.0" encoding="UTF-8" standalone="no"?>
<!DOCTYPE svg PUBLIC "-//W3C//DTD SVG 1.1//EN"
 "http://www.w3.org/Graphics/SVG/1.1/DTD/svg11.dtd">
<!-- Generated by graphviz version 2.43.0 (0)
 -->
<!-- Title: finite_state_machine Pages: 1 -->
<svg width="696pt" height="1063pt"
 viewBox="0.00 0.00 695.73 1063.42" xmlns="http://www.w3.org/2000/svg" xmlns:xlink="http://www.w3.org/1999/xlink">
<g id="page0,1_graph0" class="graph" transform="scale(1 1) rotate(0) translate(4 1059.42)">
<title>finite_state_machine</title>
<polygon fill="white" stroke="transparent" points="-4,4 -4,-1059.42 691.73,-1059.42 691.73,4 -4,4"/>
<!-- RandomnessSafeRound -->
<g id="node1" class="node">
<title>RandomnessSafeRound</title>
<ellipse fill="none" stroke="black" cx="343.84" cy="-960.53" rx="94.78" ry="94.78"/>
<text text-anchor="middle" x="343.84" y="-956.83" font-family="Times,serif" font-size="14.00">RandomnessSafeRound</text>
</g>
<!-- RandomnessSafeRound&#45;&gt;RandomnessSafeRound -->
<g id="edge2" class="edge">
<title>RandomnessSafeRound&#45;&gt;RandomnessSafeRound</title>
<path fill="none" stroke="black" d="M438.55,-970.13C449.57,-968.36 456.73,-965.16 456.73,-960.53 456.73,-957.5 453.65,-955.07 448.41,-953.27"/>
<polygon fill="black" stroke="black" points="449.09,-949.83 438.55,-950.93 447.47,-956.64 449.09,-949.83"/>
<text text-anchor="middle" x="515.23" y="-956.83" font-family="Times,serif" font-size="14.00">ROUND_TIMEOUT</text>
</g>
<!-- RandomnessSafeRound&#45;&gt;RandomnessSafeRound -->
<g id="edge3" class="edge">
<title>RandomnessSafeRound&#45;&gt;RandomnessSafeRound</title>
<path fill="none" stroke="black" d="M436.37,-981.67C501.43,-986.27 573.73,-979.22 573.73,-960.53 573.73,-942.83 508.85,-935.57 446.71,-938.76"/>
<polygon fill="black" stroke="black" points="446.13,-935.29 436.37,-939.4 446.56,-942.28 446.13,-935.29"/>
<text text-anchor="middle" x="621.73" y="-956.83" font-family="Times,serif" font-size="14.00">NO_MAJORITY</text>
</g>
<!-- SelectKeeperSafeRound -->
<g id="node2" class="node">
<title>SelectKeeperSafeRound</title>
<ellipse fill="none" stroke="black" cx="96.84" cy="-717.8" rx="96.68" ry="96.68"/>
<text text-anchor="middle" x="96.84" y="-714.1" font-family="Times,serif" font-size="14.00">SelectKeeperSafeRound</text>
</g>
<!-- RandomnessSafeRound&#45;&gt;SelectKeeperSafeRound -->
<g id="edge1" class="edge">
<title>RandomnessSafeRound&#45;&gt;SelectKeeperSafeRound</title>
<path fill="none" stroke="black" d="M249.09,-953.48C176.7,-943.3 81.35,-916.65 32.84,-847.64 22.58,-833.04 23.03,-816.55 29.02,-800.36"/>
<polygon fill="black" stroke="black" points="32.36,-801.44 33.15,-790.88 25.95,-798.65 32.36,-801.44"/>
<text text-anchor="middle" x="51.84" y="-836.44" font-family="Times,serif" font-size="14.00">DONE</text>
</g>
<!-- SelectKeeperSafeRound&#45;&gt;RandomnessSafeRound -->
<g id="edge5" class="edge">
<title>SelectKeeperSafeRound&#45;&gt;RandomnessSafeRound</title>
<path fill="none" stroke="black" d="M81.87,-813.59C83.54,-825.69 87.21,-837.41 93.84,-847.64 126.28,-897.7 186.96,-925.57 240.41,-940.97"/>
<polygon fill="black" stroke="black" points="239.72,-944.41 250.29,-943.7 241.59,-937.66 239.72,-944.41"/>
<text text-anchor="middle" x="152.34" y="-836.44" font-family="Times,serif" font-size="14.00">ROUND_TIMEOUT</text>
</g>
<!-- SelectKeeperSafeRound&#45;&gt;RandomnessSafeRound -->
<g id="edge6" class="edge">
<title>SelectKeeperSafeRound&#45;&gt;RandomnessSafeRound</title>
<path fill="none" stroke="black" d="M165.97,-786.18C198.06,-817.45 236.25,-854.68 269.01,-886.6"/>
<polygon fill="black" stroke="black" points="266.74,-889.28 276.35,-893.75 271.63,-884.27 266.74,-889.28"/>
<text text-anchor="middle" x="275.84" y="-836.44" font-family="Times,serif" font-size="14.00">NO_MAJORITY</text>
</g>
<!-- DeploySafeRound -->
<g id="node3" class="node">
<title>DeploySafeRound</title>
<ellipse fill="none" stroke="black" cx="164.84" cy="-494.57" rx="75.29" ry="75.29"/>
<text text-anchor="middle" x="164.84" y="-490.87" font-family="Times,serif" font-size="14.00">DeploySafeRound</text>
</g>
<!-- SelectKeeperSafeRound&#45;&gt;DeploySafeRound -->
<g id="edge4" class="edge">
<title>SelectKeeperSafeRound&#45;&gt;DeploySafeRound</title>
<path fill="none" stroke="black" d="M39.39,-639.56C33.07,-622.42 31.53,-604.45 39.84,-587.96 50.74,-566.35 69.35,-548.54 88.92,-534.52"/>
<polygon fill="black" stroke="black" points="91.08,-537.29 97.35,-528.75 87.12,-531.51 91.08,-537.29"/>
<text text-anchor="middle" x="58.84" y="-591.76" font-family="Times,serif" font-size="14.00">DONE</text>
</g>
<!-- DeploySafeRound&#45;&gt;SelectKeeperSafeRound -->
<g id="edge8" class="edge">
<title>DeploySafeRound&#45;&gt;SelectKeeperSafeRound</title>
<path fill="none" stroke="black" d="M117.44,-553.51C110.71,-564.39 104.75,-576.1 100.84,-587.96 98.43,-595.28 96.59,-602.97 95.22,-610.78"/>
<polygon fill="black" stroke="black" points="91.75,-610.33 93.72,-620.74 98.67,-611.37 91.75,-610.33"/>
<text text-anchor="middle" x="161.84" y="-591.76" font-family="Times,serif" font-size="14.00">DEPLOY_TIMEOUT</text>
</g>
<!-- DeploySafeRound&#45;&gt;SelectKeeperSafeRound -->
<g id="edge9" class="edge">
<title>DeploySafeRound&#45;&gt;SelectKeeperSafeRound</title>
<path fill="none" stroke="black" d="M215.98,-550.21C225.66,-566.88 230.63,-585.43 222.84,-602.96 214.02,-622.82 199.83,-640.68 184.1,-656.05"/>
<polygon fill="black" stroke="black" points="181.67,-653.53 176.78,-662.93 186.46,-658.63 181.67,-653.53"/>
<text text-anchor="middle" x="251.34" y="-591.76" font-family="Times,serif" font-size="14.00">FAILED</text>
</g>
<!-- ValidateSafeRound -->
<g id="node4" class="node">
<title>ValidateSafeRound</title>
<ellipse fill="none" stroke="black" cx="414.84" cy="-289.53" rx="78.79" ry="78.79"/>
<text text-anchor="middle" x="414.84" y="-285.83" font-family="Times,serif" font-size="14.00">ValidateSafeRound</text>
</g>
<!-- DeploySafeRound&#45;&gt;ValidateSafeRound -->
<g id="edge7" class="edge">
<title>DeploySafeRound&#45;&gt;ValidateSafeRound</title>
<path fill="none" stroke="black" d="M215.96,-438.76C233.34,-421.22 253.33,-402.2 272.84,-386.17 293.72,-369.02 317.67,-352 339.88,-337.17"/>
<polygon fill="black" stroke="black" points="341.89,-340.03 348.3,-331.59 338.03,-334.2 341.89,-340.03"/>
<text text-anchor="middle" x="291.84" y="-389.97" font-family="Times,serif" font-size="14.00">DONE</text>
</g>
<!-- ValidateSafeRound&#45;&gt;RandomnessSafeRound -->
<g id="edge11" class="edge">
<title>ValidateSafeRound&#45;&gt;RandomnessSafeRound</title>
<path fill="none" stroke="black" d="M386.64,-363.13C365.15,-422.54 337.36,-509.3 325.84,-587.96 318.57,-637.62 326.76,-763.94 334.32,-855.53"/>
<polygon fill="black" stroke="black" points="330.85,-856.01 335.17,-865.68 337.83,-855.43 330.85,-856.01"/>
<text text-anchor="middle" x="359.34" y="-591.76" font-family="Times,serif" font-size="14.00">NEGATIVE</text>
</g>
<!-- ValidateSafeRound&#45;&gt;RandomnessSafeRound -->
<g id="edge12" class="edge">
<title>ValidateSafeRound&#45;&gt;RandomnessSafeRound</title>
<path fill="none" stroke="black" d="M410.8,-368.33C407.16,-431.62 401.12,-523.18 392.84,-602.96 383.96,-688.56 370.45,-785.26 359.86,-856.34"/>
<polygon fill="black" stroke="black" points="356.34,-856.23 358.32,-866.64 363.27,-857.27 356.34,-856.23"/>
<text text-anchor="middle" x="412.84" y="-591.76" font-family="Times,serif" font-size="14.00">NONE</text>
</g>
<!-- ValidateSafeRound&#45;&gt;RandomnessSafeRound -->
<g id="edge13" class="edge">
<title>ValidateSafeRound&#45;&gt;RandomnessSafeRound</title>
<path fill="none" stroke="black" d="M421.45,-368.03C421.94,-374.17 422.4,-380.27 422.84,-386.17 429.97,-482.43 445.71,-506.94 435.84,-602.96 426.01,-698.55 416.77,-721.84 391.84,-814.64 387.77,-829.79 383.02,-845.69 378.11,-861.17"/>
<polygon fill="black" stroke="black" points="374.76,-860.16 375.04,-870.75 381.43,-862.29 374.76,-860.16"/>
<text text-anchor="middle" x="503.84" y="-591.76" font-family="Times,serif" font-size="14.00">VALIDATE_TIMEOUT</text>
</g>
<!-- ValidateSafeRound&#45;&gt;RandomnessSafeRound -->
<g id="edge14" class="edge">
<title>ValidateSafeRound&#45;&gt;RandomnessSafeRound</title>
<path fill="none" stroke="black" d="M471.67,-344.07C528.41,-404.31 603.39,-506.39 574.84,-602.96 543.43,-709.21 469.35,-813.54 413.49,-881.62"/>
<polygon fill="black" stroke="black" points="410.79,-879.39 407.12,-889.33 416.19,-883.85 410.79,-879.39"/>
<text text-anchor="middle" x="625.84" y="-591.76" font-family="Times,serif" font-size="14.00">NO_MAJORITY</text>
</g>
<!-- FinishedSafeRound -->
<g id="node5" class="node">
<title>FinishedSafeRound</title>
<ellipse fill="none" stroke="black" cx="414.84" cy="-79.94" rx="79.89" ry="79.89"/>
<text text-anchor="middle" x="414.84" y="-76.24" font-family="Times,serif" font-size="14.00">FinishedSafeRound</text>
</g>
<!-- ValidateSafeRound&#45;&gt;FinishedSafeRound -->
<g id="edge10" class="edge">
<title>ValidateSafeRound&#45;&gt;FinishedSafeRound</title>
<path fill="none" stroke="black" d="M414.84,-210.64C414.84,-197.44 414.84,-183.64 414.84,-170.18"/>
<polygon fill="black" stroke="black" points="418.34,-169.96 414.84,-159.96 411.34,-169.96 418.34,-169.96"/>
<text text-anchor="middle" x="433.84" y="-181.69" font-family="Times,serif" font-size="14.00">DONE</text>
</g>
</g>
</svg>
