<?xml version="1.0" encoding="UTF-8" standalone="no"?>
<!DOCTYPE svg PUBLIC "-//W3C//DTD SVG 1.1//EN"
 "http://www.w3.org/Graphics/SVG/1.1/DTD/svg11.dtd">
<!-- Generated by graphviz version 2.43.0 (0)
 -->
<!-- Title: finite_state_machine Pages: 1 -->
<svg width="1128pt" height="2130pt"
 viewBox="0.00 0.00 1128.00 2129.94" xmlns="http://www.w3.org/2000/svg" xmlns:xlink="http://www.w3.org/1999/xlink">
<g id="page0,1_graph0" class="graph" transform="scale(1 1) rotate(0) translate(4 2125.94)">
<title>finite_state_machine</title>
<polygon fill="white" stroke="transparent" points="-4,4 -4,-2125.94 1124,-2125.94 1124,4 -4,4"/>
<!-- RandomnessTransactionSubmissionRound -->
<g id="node1" class="node">
<title>RandomnessTransactionSubmissionRound</title>
<ellipse fill="none" stroke="black" cx="264" cy="-1959.45" rx="162.47" ry="162.47"/>
<text text-anchor="middle" x="264" y="-1955.75" font-family="Times,serif" font-size="14.00">RandomnessTransactionSubmissionRound</text>
</g>
<!-- RandomnessTransactionSubmissionRound&#45;&gt;RandomnessTransactionSubmissionRound -->
<g id="edge3" class="edge">
<title>RandomnessTransactionSubmissionRound&#45;&gt;RandomnessTransactionSubmissionRound</title>
<path fill="none" stroke="black" d="M424.46,-1985.75C436.85,-1979.93 444.49,-1971.17 444.49,-1959.45 444.49,-1950.85 440.37,-1943.84 433.27,-1938.42"/>
<polygon fill="black" stroke="black" points="434.84,-1935.28 424.46,-1933.16 431.25,-1941.29 434.84,-1935.28"/>
<text text-anchor="middle" x="492.49" y="-1955.75" font-family="Times,serif" font-size="14.00">NO_MAJORITY</text>
</g>
<!-- SelectKeeperTransactionSubmissionRoundA -->
<g id="node2" class="node">
<title>SelectKeeperTransactionSubmissionRoundA</title>
<ellipse fill="none" stroke="black" cx="264" cy="-1575.68" rx="170.07" ry="170.07"/>
<text text-anchor="middle" x="264" y="-1571.98" font-family="Times,serif" font-size="14.00">SelectKeeperTransactionSubmissionRoundA</text>
</g>
<!-- RandomnessTransactionSubmissionRound&#45;&gt;SelectKeeperTransactionSubmissionRoundA -->
<g id="edge1" class="edge">
<title>RandomnessTransactionSubmissionRound&#45;&gt;SelectKeeperTransactionSubmissionRoundA</title>
<path fill="none" stroke="black" d="M264,-1796.82C264,-1783.46 264,-1769.89 264,-1756.4"/>
<polygon fill="black" stroke="black" points="267.5,-1756.1 264,-1746.1 260.5,-1756.1 267.5,-1756.1"/>
<text text-anchor="middle" x="283" y="-1767.77" font-family="Times,serif" font-size="14.00">DONE</text>
</g>
<!-- ResetRound -->
<g id="node3" class="node">
<title>ResetRound</title>
<ellipse fill="none" stroke="black" cx="361" cy="-435.12" rx="53.89" ry="53.89"/>
<text text-anchor="middle" x="361" y="-431.42" font-family="Times,serif" font-size="14.00">ResetRound</text>
</g>
<!-- RandomnessTransactionSubmissionRound&#45;&gt;ResetRound -->
<g id="edge2" class="edge">
<title>RandomnessTransactionSubmissionRound&#45;&gt;ResetRound</title>
<path fill="none" stroke="black" d="M140.5,-1853.76C71.79,-1783.46 0,-1684.26 0,-1576.68 0,-1576.68 0,-1576.68 0,-743.79 0,-588.03 197.08,-494.48 300,-456.24"/>
<polygon fill="black" stroke="black" points="301.47,-459.43 309.66,-452.71 299.07,-452.85 301.47,-459.43"/>
<text text-anchor="middle" x="58.5" y="-1139.31" font-family="Times,serif" font-size="14.00">ROUND_TIMEOUT</text>
</g>
<!-- SelectKeeperTransactionSubmissionRoundA&#45;&gt;ResetRound -->
<g id="edge5" class="edge">
<title>SelectKeeperTransactionSubmissionRoundA&#45;&gt;ResetRound</title>
<path fill="none" stroke="black" d="M264,-1405.35C264,-1359.02 264,-1308.8 264,-1262.46 264,-1262.46 264,-1262.46 264,-743.79 264,-668.42 258.9,-646.9 282,-575.16 291.82,-544.66 308.84,-513.41 324.57,-488.28"/>
<polygon fill="black" stroke="black" points="327.64,-489.97 330.07,-479.65 321.74,-486.2 327.64,-489.97"/>
<text text-anchor="middle" x="322.5" y="-1037.77" font-family="Times,serif" font-size="14.00">ROUND_TIMEOUT</text>
</g>
<!-- SelectKeeperTransactionSubmissionRoundA&#45;&gt;ResetRound -->
<g id="edge6" class="edge">
<title>SelectKeeperTransactionSubmissionRoundA&#45;&gt;ResetRound</title>
<path fill="none" stroke="black" d="M175.04,-1430.21C151.25,-1379.1 132,-1319.98 132,-1262.46 132,-1262.46 132,-1262.46 132,-743.79 132,-626.06 241.24,-524.18 308.82,-472.43"/>
<polygon fill="black" stroke="black" points="310.98,-475.18 316.85,-466.36 306.76,-469.6 310.98,-475.18"/>
<text text-anchor="middle" x="180" y="-1037.77" font-family="Times,serif" font-size="14.00">NO_MAJORITY</text>
</g>
<!-- CollectSignatureRound -->
<g id="node4" class="node">
<title>CollectSignatureRound</title>
<ellipse fill="none" stroke="black" cx="428" cy="-1261.46" rx="92.88" ry="92.88"/>
<text text-anchor="middle" x="428" y="-1257.76" font-family="Times,serif" font-size="14.00">CollectSignatureRound</text>
</g>
<!-- SelectKeeperTransactionSubmissionRoundA&#45;&gt;CollectSignatureRound -->
<g id="edge4" class="edge">
<title>SelectKeeperTransactionSubmissionRoundA&#45;&gt;CollectSignatureRound</title>
<path fill="none" stroke="black" d="M342.88,-1424.51C355.64,-1400.21 368.51,-1375.71 380.24,-1353.39"/>
<polygon fill="black" stroke="black" points="383.47,-1354.77 385.02,-1344.29 377.27,-1351.51 383.47,-1354.77"/>
<text text-anchor="middle" x="385" y="-1376.2" font-family="Times,serif" font-size="14.00">DONE</text>
</g>
<!-- ResetRound&#45;&gt;RandomnessTransactionSubmissionRound -->
<g id="edge21" class="edge">
<title>ResetRound&#45;&gt;RandomnessTransactionSubmissionRound</title>
<path fill="none" stroke="black" d="M409.97,-458.63C458.56,-479.79 535.73,-510.21 606,-524.16 773.59,-557.42 823.87,-502.26 990,-542.16 1024.62,-550.47 1042.05,-546.37 1063,-575.16 1107.39,-636.14 1082,-668.37 1082,-743.79 1082,-1576.68 1082,-1576.68 1082,-1576.68 1082,-1859.03 676.86,-1933.05 436.83,-1952.13"/>
<polygon fill="black" stroke="black" points="436.29,-1948.66 426.59,-1952.92 436.83,-1955.64 436.29,-1948.66"/>
<text text-anchor="middle" x="1101" y="-1139.31" font-family="Times,serif" font-size="14.00">DONE</text>
</g>
<!-- FailedRound -->
<g id="node9" class="node">
<title>FailedRound</title>
<ellipse fill="none" stroke="black" cx="428" cy="-147.54" rx="55.79" ry="55.79"/>
<text text-anchor="middle" x="428" y="-143.84" font-family="Times,serif" font-size="14.00">FailedRound</text>
</g>
<!-- ResetRound&#45;&gt;FailedRound -->
<g id="edge22" class="edge">
<title>ResetRound&#45;&gt;FailedRound</title>
<path fill="none" stroke="black" d="M357.2,-381.25C356.76,-359.9 357.65,-335.13 362,-313.07 369.24,-276.41 384.46,-237.5 398.46,-206.73"/>
<polygon fill="black" stroke="black" points="401.73,-208 402.76,-197.46 395.38,-205.06 401.73,-208"/>
<text text-anchor="middle" x="417" y="-316.87" font-family="Times,serif" font-size="14.00">RESET_TIMEOUT</text>
</g>
<!-- ResetRound&#45;&gt;FailedRound -->
<g id="edge23" class="edge">
<title>ResetRound&#45;&gt;FailedRound</title>
<path fill="none" stroke="black" d="M314.2,-407.83C280.76,-385.27 244.25,-350.54 260,-313.07 282.82,-258.79 333.26,-213.44 372.95,-184.19"/>
<polygon fill="black" stroke="black" points="375.19,-186.89 381.24,-178.2 371.08,-181.22 375.19,-186.89"/>
<text text-anchor="middle" x="308" y="-316.87" font-family="Times,serif" font-size="14.00">NO_MAJORITY</text>
</g>
<!-- CollectSignatureRound&#45;&gt;ResetRound -->
<g id="edge8" class="edge">
<title>CollectSignatureRound&#45;&gt;ResetRound</title>
<path fill="none" stroke="black" d="M425.65,-1168.29C421.78,-1092.98 411.61,-994.4 385,-965.43 361.23,-939.54 329.84,-974.96 308,-947.43 251.94,-876.76 315.98,-631.1 331,-542.16 333.52,-527.21 337.36,-511.36 341.45,-496.6"/>
<polygon fill="black" stroke="black" points="344.93,-497.15 344.31,-486.58 338.2,-495.23 344.93,-497.15"/>
<text text-anchor="middle" x="366.5" y="-936.23" font-family="Times,serif" font-size="14.00">ROUND_TIMEOUT</text>
</g>
<!-- CollectSignatureRound&#45;&gt;ResetRound -->
<g id="edge9" class="edge">
<title>CollectSignatureRound&#45;&gt;ResetRound</title>
<path fill="none" stroke="black" d="M432.93,-1168.35C433.16,-1157.29 433.21,-1146.15 433,-1135.51 431.22,-1045.2 480.5,-1003.7 425,-932.43 407.63,-910.13 381,-937.01 364,-914.43 316.08,-850.74 338.34,-613.63 352.47,-498.99"/>
<polygon fill="black" stroke="black" points="355.96,-499.31 353.73,-488.95 349.01,-498.44 355.96,-499.31"/>
<text text-anchor="middle" x="484" y="-936.23" font-family="Times,serif" font-size="14.00">NO_MAJORITY</text>
</g>
<!-- FinalizationRound -->
<g id="node5" class="node">
<title>FinalizationRound</title>
<ellipse fill="none" stroke="black" cx="672" cy="-1041.47" rx="76.09" ry="76.09"/>
<text text-anchor="middle" x="672" y="-1037.77" font-family="Times,serif" font-size="14.00">FinalizationRound</text>
</g>
<!-- CollectSignatureRound&#45;&gt;FinalizationRound -->
<g id="edge7" class="edge">
<title>CollectSignatureRound&#45;&gt;FinalizationRound</title>
<path fill="none" stroke="black" d="M496.94,-1198.86C531.79,-1167.73 573.82,-1130.19 607.95,-1099.69"/>
<polygon fill="black" stroke="black" points="610.43,-1102.17 615.56,-1092.9 605.77,-1096.95 610.43,-1102.17"/>
<text text-anchor="middle" x="584" y="-1139.31" font-family="Times,serif" font-size="14.00">DONE</text>
</g>
<!-- ValidateTransactionRound -->
<g id="node6" class="node">
<title>ValidateTransactionRound</title>
<ellipse fill="none" stroke="black" cx="478" cy="-744.79" rx="104.78" ry="104.78"/>
<text text-anchor="middle" x="478" y="-741.09" font-family="Times,serif" font-size="14.00">ValidateTransactionRound</text>
</g>
<!-- FinalizationRound&#45;&gt;ValidateTransactionRound -->
<g id="edge10" class="edge">
<title>FinalizationRound&#45;&gt;ValidateTransactionRound</title>
<path fill="none" stroke="black" d="M630.62,-977.62C604.48,-937.92 570.21,-885.86 540.77,-841.13"/>
<polygon fill="black" stroke="black" points="543.56,-839.01 535.14,-832.58 537.71,-842.86 543.56,-839.01"/>
<text text-anchor="middle" x="629" y="-936.23" font-family="Times,serif" font-size="14.00">DONE</text>
</g>
<!-- SelectKeeperTransactionSubmissionRoundB -->
<g id="node7" class="node">
<title>SelectKeeperTransactionSubmissionRoundB</title>
<ellipse fill="none" stroke="black" cx="884" cy="-744.79" rx="169.77" ry="169.77"/>
<text text-anchor="middle" x="884" y="-741.09" font-family="Times,serif" font-size="14.00">SelectKeeperTransactionSubmissionRoundB</text>
</g>
<!-- FinalizationRound&#45;&gt;SelectKeeperTransactionSubmissionRoundB -->
<g id="edge11" class="edge">
<title>FinalizationRound&#45;&gt;SelectKeeperTransactionSubmissionRoundB</title>
<path fill="none" stroke="black" d="M662.51,-965.83C663.82,-954.07 666.97,-942.48 673,-932.43 681.59,-918.1 692.49,-924.26 706,-914.43 723.31,-901.83 740.7,-887.68 757.45,-873.06"/>
<polygon fill="black" stroke="black" points="759.92,-875.56 765.1,-866.32 755.29,-870.3 759.92,-875.56"/>
<text text-anchor="middle" x="731.5" y="-936.23" font-family="Times,serif" font-size="14.00">ROUND_TIMEOUT</text>
</g>
<!-- FinalizationRound&#45;&gt;SelectKeeperTransactionSubmissionRoundB -->
<g id="edge12" class="edge">
<title>FinalizationRound&#45;&gt;SelectKeeperTransactionSubmissionRoundB</title>
<path fill="none" stroke="black" d="M735.36,-999.18C754.61,-984.49 774.7,-966.76 790,-947.43 798.96,-936.11 807.31,-923.8 815.03,-911.03"/>
<polygon fill="black" stroke="black" points="818.22,-912.51 820.28,-902.12 812.19,-908.96 818.22,-912.51"/>
<text text-anchor="middle" x="825.5" y="-936.23" font-family="Times,serif" font-size="14.00">FAILED</text>
</g>
<!-- ValidateTransactionRound&#45;&gt;ResetRound -->
<g id="edge14" class="edge">
<title>ValidateTransactionRound&#45;&gt;ResetRound</title>
<path fill="none" stroke="black" d="M518.76,-648.33C527.58,-613.39 529.88,-574.53 513,-542.16 493.48,-504.74 454.06,-477.83 420.25,-460.48"/>
<polygon fill="black" stroke="black" points="421.4,-457.14 410.89,-455.84 418.3,-463.41 421.4,-457.14"/>
<text text-anchor="middle" x="553.5" y="-545.96" font-family="Times,serif" font-size="14.00">NEGATIVE</text>
</g>
<!-- ValidateTransactionRound&#45;&gt;ResetRound -->
<g id="edge15" class="edge">
<title>ValidateTransactionRound&#45;&gt;ResetRound</title>
<path fill="none" stroke="black" d="M556.09,-674.49C590.88,-635.04 618.48,-585.08 591,-542.16 554.57,-485.24 478.99,-458.45 424.39,-446.12"/>
<polygon fill="black" stroke="black" points="424.97,-442.66 414.46,-443.98 423.5,-449.51 424.97,-442.66"/>
<text text-anchor="middle" x="616" y="-545.96" font-family="Times,serif" font-size="14.00">NONE</text>
</g>
<!-- ValidateTransactionRound&#45;&gt;ResetRound -->
<g id="edge16" class="edge">
<title>ValidateTransactionRound&#45;&gt;ResetRound</title>
<path fill="none" stroke="black" d="M420.82,-656.81C403.38,-626.42 385.94,-591.35 375,-557.16 369.12,-538.8 365.66,-518.17 363.63,-499.22"/>
<polygon fill="black" stroke="black" points="367.11,-498.81 362.67,-489.19 360.14,-499.48 367.11,-498.81"/>
<text text-anchor="middle" x="442" y="-545.96" font-family="Times,serif" font-size="14.00">VALIDATE_TIMEOUT</text>
</g>
<!-- ValidateTransactionRound&#45;&gt;ValidateTransactionRound -->
<g id="edge17" class="edge">
<title>ValidateTransactionRound&#45;&gt;ValidateTransactionRound</title>
<path fill="none" stroke="black" d="M577.61,-777.25C591.41,-771.91 600.64,-761.09 600.64,-744.79 600.64,-732.32 595.23,-723.05 586.5,-717"/>
<polygon fill="black" stroke="black" points="588.09,-713.88 577.61,-712.33 584.84,-720.08 588.09,-713.88"/>
<text text-anchor="middle" x="648.64" y="-741.09" font-family="Times,serif" font-size="14.00">NO_MAJORITY</text>
</g>
<!-- ResetAndPauseRound -->
<g id="node8" class="node">
<title>ResetAndPauseRound</title>
<ellipse fill="none" stroke="black" cx="704" cy="-435.12" rx="89.08" ry="89.08"/>
<text text-anchor="middle" x="704" y="-431.42" font-family="Times,serif" font-size="14.00">ResetAndPauseRound</text>
</g>
<!-- ValidateTransactionRound&#45;&gt;ResetAndPauseRound -->
<g id="edge13" class="edge">
<title>ValidateTransactionRound&#45;&gt;ResetAndPauseRound</title>
<path fill="none" stroke="black" d="M549.75,-668.32C579.16,-635.5 612.45,-595.77 639,-557.16 646.21,-546.66 653.25,-535.28 659.86,-523.84"/>
<polygon fill="black" stroke="black" points="662.93,-525.51 664.83,-515.09 656.85,-522.06 662.93,-525.51"/>
<text text-anchor="middle" x="667" y="-545.96" font-family="Times,serif" font-size="14.00">DONE</text>
</g>
<!-- SelectKeeperTransactionSubmissionRoundB&#45;&gt;ResetRound -->
<g id="edge19" class="edge">
<title>SelectKeeperTransactionSubmissionRoundB&#45;&gt;ResetRound</title>
<path fill="none" stroke="black" d="M881.2,-575.15C875.57,-562.86 868.01,-551.61 858,-542.16 837.59,-522.88 633.47,-529.96 606,-524.16 540.29,-510.28 468.32,-482.85 419.49,-462.28"/>
<polygon fill="black" stroke="black" points="420.62,-458.95 410.04,-458.26 417.88,-465.39 420.62,-458.95"/>
<text text-anchor="middle" x="927.5" y="-545.96" font-family="Times,serif" font-size="14.00">ROUND_TIMEOUT</text>
</g>
<!-- SelectKeeperTransactionSubmissionRoundB&#45;&gt;ResetRound -->
<g id="edge20" class="edge">
<title>SelectKeeperTransactionSubmissionRoundB&#45;&gt;ResetRound</title>
<path fill="none" stroke="black" d="M778.99,-611.55C752.46,-585.18 722.26,-560.11 690,-542.16 656.64,-523.59 642.71,-534.64 606,-524.16 541.62,-505.78 469.72,-479.2 420.55,-460.05"/>
<polygon fill="black" stroke="black" points="421.62,-456.71 411.03,-456.33 419.07,-463.23 421.62,-456.71"/>
<text text-anchor="middle" x="758" y="-545.96" font-family="Times,serif" font-size="14.00">NO_MAJORITY</text>
</g>
<!-- SelectKeeperTransactionSubmissionRoundB&#45;&gt;FinalizationRound -->
<g id="edge18" class="edge">
<title>SelectKeeperTransactionSubmissionRoundB&#45;&gt;FinalizationRound</title>
<path fill="none" stroke="black" d="M871.89,-914.16C867.2,-925.97 861.33,-937.22 854,-947.43 830.15,-980.63 790.91,-1002.79 754.95,-1017.13"/>
<polygon fill="black" stroke="black" points="753.49,-1013.94 745.41,-1020.78 756,-1020.47 753.49,-1013.94"/>
<text text-anchor="middle" x="882" y="-936.23" font-family="Times,serif" font-size="14.00">DONE</text>
</g>
<!-- ResetAndPauseRound&#45;&gt;FailedRound -->
<g id="edge25" class="edge">
<title>ResetAndPauseRound&#45;&gt;FailedRound</title>
<path fill="none" stroke="black" d="M619.08,-407.69C576.89,-390.8 528.01,-365.01 495,-328.07 466.11,-295.74 449.26,-249.78 439.69,-212.46"/>
<polygon fill="black" stroke="black" points="443.08,-211.56 437.3,-202.68 436.28,-213.22 443.08,-211.56"/>
<text text-anchor="middle" x="593" y="-316.87" font-family="Times,serif" font-size="14.00">RESET_AND_PAUSE_TIMEOUT</text>
</g>
<!-- ResetAndPauseRound&#45;&gt;FailedRound -->
<g id="edge26" class="edge">
<title>ResetAndPauseRound&#45;&gt;FailedRound</title>
<path fill="none" stroke="black" d="M704.02,-345.97C701.36,-334.34 697.22,-323.02 691,-313.07 678.42,-292.98 558.71,-222.68 485.2,-180.75"/>
<polygon fill="black" stroke="black" points="486.9,-177.69 476.47,-175.78 483.43,-183.77 486.9,-177.69"/>
<text text-anchor="middle" x="747" y="-316.87" font-family="Times,serif" font-size="14.00">NO_MAJORITY</text>
</g>
<!-- FinishedTransactionSubmissionRound -->
<g id="node10" class="node">
<title>FinishedTransactionSubmissionRound</title>
<ellipse fill="none" stroke="black" cx="832" cy="-147.54" rx="147.57" ry="147.57"/>
<text text-anchor="middle" x="832" y="-143.84" font-family="Times,serif" font-size="14.00">FinishedTransactionSubmissionRound</text>
</g>
<!-- ResetAndPauseRound&#45;&gt;FinishedTransactionSubmissionRound -->
<g id="edge24" class="edge">
<title>ResetAndPauseRound&#45;&gt;FinishedTransactionSubmissionRound</title>
<path fill="none" stroke="black" d="M773.02,-378.65C787.45,-363.73 800.99,-346.56 810,-328.07 813.66,-320.57 816.8,-312.68 819.48,-304.58"/>
<polygon fill="black" stroke="black" points="822.84,-305.56 822.42,-294.98 816.15,-303.51 822.84,-305.56"/>
<text text-anchor="middle" x="835" y="-316.87" font-family="Times,serif" font-size="14.00">DONE</text>
</g>
</g>
</svg>
